<svg width="139" height="22" viewBox="0 0 139 22" fill="none" xmlns="http://www.w3.org/2000/svg">
<path d="M40.632 20H43.728L44.448 10.472C44.52 9.344 44.472 7.808 44.472 7.808H44.52C44.52 7.808 45.048 9.488 45.456 10.472L48.192 17.072H50.904L53.664 10.472C54.072 9.488 54.576 7.832 54.576 7.832H54.624C54.624 7.832 54.576 9.344 54.648 10.472L55.368 20H58.44L57.072 2.96H53.76L50.424 11.384C50.04 12.392 49.584 13.88 49.584 13.88H49.536C49.536 13.88 49.056 12.392 48.672 11.384L45.336 2.96H42.024L40.632 20ZM60.6463 13.88C60.6463 17.36 63.1663 20.288 67.2223 20.288C70.2703 20.288 72.1423 18.536 72.1423 18.536L70.9663 16.352C70.9663 16.352 69.4063 17.696 67.4383 17.696C65.6143 17.696 63.9583 16.592 63.7663 14.456H72.2143C72.2143 14.456 72.2863 13.64 72.2863 13.28C72.2863 10.04 70.3903 7.472 66.8623 7.472C63.2143 7.472 60.6463 10.112 60.6463 13.88ZM63.8623 12.368C64.1503 10.784 65.2303 9.824 66.7903 9.824C68.1343 9.824 69.1663 10.712 69.2143 12.368H63.8623ZM75.0874 15.512C75.0874 19.616 78.4714 20.12 80.1754 20.12C80.7514 20.12 81.1114 20.048 81.1114 20.048V17.384C81.1114 17.384 80.8954 17.432 80.5594 17.432C79.7194 17.432 78.1354 17.144 78.1354 15.128V10.376H80.9194V7.952H78.1354V4.424H75.1594V7.952H73.5034V10.376H75.0874V15.512ZM83.3662 20H86.4142V15.152C86.4142 14.432 86.4862 13.76 86.6782 13.16C87.2542 11.336 88.7182 10.592 90.0142 10.592C90.4222 10.592 90.7342 10.64 90.7342 10.64V7.64C90.7342 7.64 90.4702 7.592 90.1822 7.592C88.3102 7.592 86.8462 8.984 86.2942 10.736H86.2462C86.2462 10.736 86.2942 10.328 86.2942 9.872V7.76H83.3662V20ZM91.6361 13.88C91.6361 17.648 94.6361 20.288 98.3801 20.288C102.1 20.288 105.1 17.648 105.1 13.88C105.1 10.136 102.1 7.472 98.3561 7.472C94.6361 7.472 91.6361 10.136 91.6361 13.88ZM94.7321 13.88C94.7321 11.624 96.3881 10.064 98.3801 10.064C100.348 10.064 102.004 11.624 102.004 13.88C102.004 16.16 100.348 17.696 98.3801 17.696C96.3881 17.696 94.7321 16.16 94.7321 13.88ZM107.308 20H110.356V14.384C110.356 13.808 110.404 13.256 110.572 12.752C111.028 11.288 112.228 10.256 113.86 10.256C115.42 10.256 115.804 11.264 115.804 12.752V20H118.828V12.128C118.828 8.888 117.292 7.472 114.58 7.472C112.108 7.472 110.764 8.984 110.236 10.016H110.188C110.188 10.016 110.236 9.632 110.236 9.176V7.76H107.308V20ZM121.787 5.672H124.811V2.96H121.787V5.672ZM121.787 20H124.835V7.76H121.787V20ZM127.057 13.88C127.057 17.432 129.649 20.288 133.705 20.288C136.993 20.288 138.745 18.296 138.745 18.296L137.569 16.136C137.569 16.136 136.033 17.696 133.969 17.696C131.641 17.696 130.153 15.92 130.153 13.856C130.153 11.768 131.617 10.064 133.873 10.064C135.793 10.064 137.065 11.384 137.065 11.384L138.409 9.296C138.409 9.296 136.897 7.472 133.705 7.472C129.649 7.472 127.057 10.4 127.057 13.88Z" fill="#181C32"/>
<path d="M24.009 1.09091L29.9838 19.6941C30.3095 20.7084 29.5529 21.746 28.4876 21.746H24.0941C23.4095 21.746 22.8036 21.3027 22.5964 20.6502L16.6896 2.04699C16.3678 1.03369 17.1241 0 18.1873 0H22.5128C23.1956 0 23.8002 0.44086 24.009 1.09091Z" fill="#50CD89"/>
<g filter="url(#filter0_i_8_7)">
<path d="M18.2871 14.85L14.074 1.35504C13.8224 0.54894 13.076 0 12.2315 0C11.2036 0 10.356 0.8055 10.3037 1.83205L9.78971 11.919C9.77148 12.2772 9.81469 12.636 9.9175 12.9796L12.2046 20.625C12.4036 21.2903 13.0157 21.746 13.7101 21.746H15.836C16.52 21.746 17.1254 21.3036 17.3332 20.652L18.2786 17.687C18.5726 16.7646 18.5756 15.7741 18.2871 14.85Z" fill="#ECECEC"/>
<path d="M18.2871 14.85L14.074 1.35504C13.8224 0.54894 13.076 0 12.2315 0C11.2036 0 10.356 0.8055 10.3037 1.83205L9.78971 11.919C9.77148 12.2772 9.81469 12.636 9.9175 12.9796L12.2046 20.625C12.4036 21.2903 13.0157 21.746 13.7101 21.746H15.836C16.52 21.746 17.1254 21.3036 17.3332 20.652L18.2786 17.687C18.5726 16.7646 18.5756 15.7741 18.2871 14.85Z" fill="url(#paint0_linear_8_7)"/>
</g>
<path d="M7.98159 0H12.3088C13.3684 0 14.1243 1.02728 13.809 2.03891L7.96293 20.8008C7.75833 21.4575 7.15046 21.9048 6.46265 21.9048H2.13551C1.0759 21.9048 0.320005 20.8775 0.635224 19.8658L6.48131 1.10395C6.68595 0.44729 7.29381 0 7.98159 0Z" fill="#50CD89"/>
<defs>
<filter id="filter0_i_8_7" x="5.78564" y="0" width="12.7157" height="24.746" filterUnits="userSpaceOnUse" color-interpolation-filters="sRGB">
<feFlood flood-opacity="0" result="BackgroundImageFix"/>
<feBlend mode="normal" in="SourceGraphic" in2="BackgroundImageFix" result="shape"/>
<feColorMatrix in="SourceAlpha" type="matrix" values="0 0 0 0 0 0 0 0 0 0 0 0 0 0 0 0 0 0 127 0" result="hardAlpha"/>
<feOffset dx="-4" dy="3"/>
<feGaussianBlur stdDeviation="2"/>
<feComposite in2="hardAlpha" operator="arithmetic" k2="-1" k3="1"/>
<feColorMatrix type="matrix" values="0 0 0 0 0.904167 0 0 0 0 0.892865 0 0 0 0 0.892865 0 0 0 0.4 0"/>
<feBlend mode="normal" in2="shape" result="effect1_innerShadow_8_7"/>
</filter>
<linearGradient id="paint0_linear_8_7" x1="11.3931" y1="9.625" x2="15.9109" y2="10.8036" gradientUnits="userSpaceOnUse">
<stop stop-opacity="0.25"/>
<stop offset="0.911458" stop-color="white" stop-opacity="0"/>
</linearGradient>
</defs>
</svg>
