<svg width="177" height="180" viewBox="0 0 177 180" fill="none" xmlns="http://www.w3.org/2000/svg">
<path d="M14.8801 65.3914L89.449 24.73C89.9022 24.4832 90.3997 24.3287 90.9129 24.2753C91.4261 24.222 91.9449 24.2708 92.4391 24.4191C92.9333 24.5674 93.3932 24.8123 93.7923 25.1394C94.1913 25.4665 94.5216 25.8694 94.764 26.3249L99.5398 35.3019L14.8801 65.3914Z" fill="white"/>
<path d="M14.8794 65.7274C14.8056 65.7269 14.7341 65.7021 14.676 65.6566C14.6178 65.6112 14.5764 65.5478 14.5581 65.4763C14.5398 65.4048 14.5456 65.3293 14.5747 65.2615C14.6038 65.1937 14.6545 65.1375 14.7189 65.1016L89.2879 24.4402C89.7795 24.1713 90.3194 24.0026 90.8766 23.9441C91.4338 23.8855 91.9971 23.9382 92.5338 24.099C93.0704 24.2598 93.5698 24.5255 94.003 24.8808C94.4361 25.2361 94.7945 25.6738 95.0572 26.1687L99.8331 35.1479C99.8554 35.1901 99.8683 35.2366 99.871 35.2843C99.8737 35.332 99.866 35.3797 99.8486 35.4242C99.832 35.4691 99.8057 35.5098 99.7714 35.5434C99.7371 35.5769 99.6958 35.6023 99.6504 35.6179L14.9907 65.7097C14.9547 65.7212 14.9172 65.7271 14.8794 65.7274ZM91.3217 24.5894C90.7253 24.593 90.1394 24.7462 89.6176 25.0349L18.7597 63.6714L99.069 35.1279L94.4759 26.4917C94.172 25.9191 93.7178 25.4402 93.162 25.1066C92.6062 24.7729 91.9699 24.5972 91.3217 24.5983V24.5894Z" fill="black"/>
<path d="M27.3026 64.7283C32.2592 64.7283 36.2774 60.7102 36.2774 55.7536C36.2774 50.7969 32.2592 46.7788 27.3026 46.7788C22.346 46.7788 18.3279 50.7969 18.3279 55.7536C18.3279 60.7102 22.346 64.7283 27.3026 64.7283Z" fill="#FFD27B"/>
<path d="M27.3138 65.0625C27.1623 65.0625 27.0108 65.0625 26.8683 65.0514C25.0299 64.9629 23.259 64.3313 21.7795 63.2365C20.3 62.1417 19.1783 60.6328 18.5563 58.9005C17.9343 57.1683 17.8399 55.2905 18.2851 53.5046C18.7302 51.7187 19.6949 50.1049 21.0572 48.8673C22.4194 47.6296 24.118 46.8235 25.9383 46.5512C27.7586 46.2788 29.6188 46.5524 31.2836 47.3371C32.9485 48.1219 34.3432 49.3826 35.2916 50.96C36.2399 52.5374 36.6993 54.3606 36.6115 56.1991L36.2774 56.1835L36.6115 56.1991C36.4972 58.5861 35.4692 60.8377 33.7404 62.4876C32.0117 64.1376 29.7147 65.0595 27.325 65.0625H27.3138ZM27.2938 47.1152C25.0335 47.1709 22.8863 48.115 21.3174 49.7429C19.7485 51.3709 18.8844 53.5515 18.9122 55.8122C18.9401 58.0729 19.8577 60.2316 21.4662 61.8205C23.0747 63.4093 25.2444 64.3002 27.5053 64.3002C29.7662 64.3002 31.936 63.4093 33.5446 61.8205C35.1531 60.2316 36.0707 58.0729 36.0985 55.8122C36.1263 53.5515 35.2622 51.3709 33.6933 49.7429C32.1244 48.115 29.9772 47.1709 27.717 47.1152C27.5744 47.1264 27.4341 47.1263 27.2938 47.1263V47.1152Z" fill="#1D1D1B"/>
<path d="M19.9981 54.3923C19.9703 54.3918 19.9426 54.388 19.9156 54.381C19.8731 54.3704 19.8331 54.3515 19.7978 54.3254C19.7626 54.2992 19.7328 54.2663 19.7103 54.2287C19.6877 54.191 19.6729 54.1493 19.6664 54.1059C19.66 54.0625 19.6622 54.0182 19.6729 53.9757C19.9257 52.9683 20.3744 52.0206 20.9935 51.1867C21.6126 50.3528 22.3899 49.649 23.281 49.1156C24.1721 48.5821 25.1595 48.2294 26.187 48.0776C27.2144 47.9258 28.2618 47.9779 29.2691 48.2309C29.3551 48.2524 29.4289 48.3072 29.4745 48.3832C29.52 48.4593 29.5334 48.5503 29.5119 48.6362C29.4903 48.7222 29.4355 48.7962 29.3595 48.8417C29.2835 48.8872 29.1925 48.9007 29.1065 48.8791C27.2441 48.4119 25.2724 48.7035 23.6249 49.6897C21.9774 50.676 20.789 52.2761 20.321 54.1383C20.3031 54.2105 20.2617 54.2748 20.2032 54.3208C20.1447 54.3668 20.0725 54.3919 19.9981 54.3923Z" fill="#1D1D1B"/>
<path d="M34.6914 57.7446C34.4495 58.7096 34.0199 59.6176 33.4271 60.4165C32.8342 61.2154 32.0898 61.8897 31.2363 62.4008C30.3828 62.912 29.4369 63.25 28.4527 63.3955C27.4686 63.541 26.4654 63.4911 25.5005 63.2489" fill="#2A3B8E"/>
<path d="M27.3583 63.8126C26.7049 63.812 26.054 63.7312 25.4203 63.572C25.3343 63.5505 25.2605 63.4956 25.2149 63.4195C25.1694 63.3435 25.156 63.2525 25.1775 63.1665C25.1991 63.0806 25.2539 63.0067 25.3299 62.9612C25.4059 62.9157 25.4969 62.9022 25.5829 62.9238C26.5051 63.1553 27.4639 63.203 28.4045 63.0639C29.3451 62.9247 30.2491 62.6016 31.0647 62.113C31.8804 61.6244 32.5918 60.9798 33.1583 60.2161C33.7247 59.4525 34.1352 58.5847 34.3661 57.6623C34.3928 57.5816 34.4491 57.5139 34.5237 57.4731C34.5983 57.4322 34.6856 57.4211 34.768 57.4419C34.8505 57.4628 34.9219 57.5143 34.968 57.5857C35.0141 57.6572 35.0315 57.7435 35.0165 57.8272C34.5864 59.5339 33.6002 61.0488 32.2134 62.1326C30.8266 63.2165 29.1184 63.8076 27.3583 63.8126Z" fill="#1D1D1B"/>
<path d="M28.9134 59.8229L27.2271 58.4975C27.1737 58.4558 27.111 58.4276 27.0443 58.4152C26.9776 58.4028 26.909 58.4066 26.8441 58.4263L24.7947 59.0633C24.7201 59.0868 24.6404 59.089 24.5646 59.0695C24.4889 59.05 24.4201 59.0097 24.366 58.9531C24.312 58.8966 24.2749 58.826 24.2589 58.7494C24.2429 58.6728 24.2487 58.5933 24.2756 58.5198L25.0174 56.515C25.0403 56.451 25.0477 56.3824 25.0387 56.315C25.0298 56.2476 25.0049 56.1834 24.9662 56.1275L23.7255 54.3766C23.678 54.3127 23.6496 54.2368 23.6437 54.1574C23.6378 54.078 23.6548 53.9986 23.6924 53.9285C23.7301 53.8583 23.7869 53.8004 23.8562 53.7614C23.9256 53.7224 24.0046 53.704 24.0841 53.7083L26.2292 53.7908C26.2971 53.7929 26.3647 53.7786 26.426 53.7491C26.4872 53.7196 26.5404 53.6759 26.5812 53.6215L27.862 51.9018C27.9086 51.8389 27.972 51.7903 28.0448 51.7616C28.1177 51.7329 28.1971 51.7252 28.2741 51.7393C28.3511 51.7535 28.4227 51.7889 28.4806 51.8417C28.5384 51.8944 28.5804 51.9623 28.6016 52.0377L29.1874 54.1026C29.206 54.1681 29.2402 54.2282 29.2872 54.2775C29.3341 54.3268 29.3924 54.3638 29.4569 54.3855L31.4885 55.0739C31.5629 55.0988 31.6287 55.1442 31.6786 55.2047C31.7285 55.2653 31.7603 55.3386 31.7705 55.4164C31.7807 55.4942 31.7689 55.5732 31.7364 55.6446C31.7038 55.716 31.6519 55.7767 31.5865 55.82L29.8045 57.0141C29.7479 57.0517 29.7014 57.1026 29.6692 57.1624C29.6369 57.2222 29.6199 57.2891 29.6196 57.3571L29.5906 59.5022C29.5898 59.5803 29.5671 59.6567 29.5249 59.7225C29.4828 59.7884 29.4231 59.841 29.3524 59.8745C29.2818 59.908 29.2032 59.9208 29.1255 59.9117C29.0479 59.9026 28.9744 59.8718 28.9134 59.8229Z" fill="white"/>
<path d="M29.1738 60.2372C29.0048 60.2366 28.8409 60.1794 28.7083 60.0746L27.022 58.7493C27.0111 58.7408 26.9984 58.735 26.9849 58.7323C26.9714 58.7296 26.9574 58.73 26.9441 58.7336L24.8969 59.3729C24.7626 59.415 24.6191 59.4186 24.4828 59.3833C24.3466 59.3479 24.2229 59.2751 24.126 59.173C24.029 59.071 23.9626 58.9438 23.9343 58.8058C23.906 58.6679 23.9169 58.5249 23.9659 58.3928L24.7054 56.3881C24.7098 56.3751 24.7111 56.3613 24.7092 56.3477C24.7072 56.3342 24.7021 56.3213 24.6943 56.3101L23.4558 54.557C23.3746 54.4423 23.3271 54.3071 23.3187 54.1668C23.3104 54.0266 23.3415 53.8868 23.4084 53.7632C23.4754 53.6397 23.5756 53.5373 23.6978 53.4678C23.8199 53.3983 23.9591 53.3642 24.0995 53.3697L26.2424 53.4521C26.2563 53.4529 26.2703 53.4501 26.2828 53.4439C26.2953 53.4376 26.306 53.4282 26.3137 53.4166L27.5967 51.6969C27.6806 51.5837 27.7947 51.4965 27.9259 51.4453C28.0572 51.3941 28.2001 51.3809 28.3385 51.4073C28.4765 51.433 28.6046 51.4965 28.7085 51.5909C28.8124 51.6854 28.888 51.807 28.9266 51.9419L29.5101 54.0068C29.5142 54.0202 29.5214 54.0324 29.5311 54.0424C29.5408 54.0525 29.5526 54.0601 29.5658 54.0647L31.5974 54.7531C31.73 54.7983 31.8474 54.8796 31.9363 54.9879C32.0252 55.0962 32.082 55.2272 32.1005 55.3661C32.119 55.505 32.0984 55.6463 32.041 55.7741C31.9836 55.9019 31.8917 56.0112 31.7756 56.0896L29.9936 57.2835C29.9817 57.2912 29.9719 57.3017 29.9653 57.3142C29.9587 57.3267 29.9553 57.3407 29.9556 57.3548L29.929 59.4999C29.9268 59.6403 29.8853 59.7773 29.8093 59.8953C29.7334 60.0134 29.6259 60.1079 29.499 60.1681C29.397 60.2146 29.286 60.2382 29.1738 60.2372ZM26.9686 58.0632C27.138 58.0635 27.3025 58.1198 27.4364 58.2235L29.1226 59.56C29.1358 59.5688 29.1513 59.5736 29.1672 59.5736C29.1831 59.5736 29.1985 59.5688 29.2117 59.56C29.2262 59.5533 29.2385 59.5426 29.2471 59.5292C29.2558 59.5158 29.2605 59.5003 29.2607 59.4843L29.2874 57.3392C29.2884 57.2169 29.3194 57.0967 29.3777 56.9891C29.4359 56.8815 29.5196 56.7899 29.6215 56.7222L31.4035 55.5283C31.4172 55.5199 31.428 55.5075 31.4344 55.4927C31.4408 55.4779 31.4425 55.4616 31.4392 55.4458C31.438 55.43 31.4321 55.4149 31.4221 55.4025C31.4122 55.3902 31.3987 55.3812 31.3835 55.3768L29.352 54.6885C29.2362 54.6496 29.1317 54.583 29.0474 54.4944C28.9632 54.4059 28.9018 54.2981 28.8686 54.1805L28.2828 52.1156C28.2792 52.0999 28.271 52.0857 28.259 52.0749C28.247 52.0642 28.232 52.0574 28.216 52.0555C28.2005 52.052 28.1843 52.0533 28.1696 52.0593C28.1549 52.0652 28.1423 52.0756 28.1336 52.0889L26.8505 53.8086C26.777 53.9059 26.6812 53.9841 26.571 54.0364C26.4609 54.0888 26.3397 54.1138 26.2179 54.1093L24.0728 54.0291C24.0569 54.0285 24.0412 54.0323 24.0274 54.0401C24.0137 54.048 24.0023 54.0596 23.9948 54.0736C23.9857 54.0867 23.9808 54.1023 23.9808 54.1182C23.9808 54.1342 23.9857 54.1496 23.9948 54.1627L25.2333 55.9136C25.3039 56.0133 25.3491 56.1286 25.365 56.2497C25.381 56.3708 25.3672 56.494 25.3247 56.6085L24.5851 58.6133C24.579 58.6283 24.5775 58.6448 24.5806 58.6606C24.5838 58.6765 24.5915 58.691 24.6029 58.7025C24.6135 58.7145 24.6275 58.7229 24.6429 58.7269C24.6584 58.7308 24.6748 58.7301 24.6898 58.7247L26.7391 58.0877C26.8132 58.0682 26.8898 58.06 26.9663 58.0632H26.9686Z" fill="black"/>
<path d="M42.0646 59.1346C48.8075 59.1346 54.2737 53.6684 54.2737 46.9254C54.2737 40.1825 48.8075 34.7163 42.0646 34.7163C35.3217 34.7163 29.8555 40.1825 29.8555 46.9254C29.8555 53.6684 35.3217 59.1346 42.0646 59.1346Z" fill="#FFD27B"/>
<path d="M42.0424 59.4734C38.8378 59.4719 35.7548 58.246 33.4242 56.0465C31.0935 53.8471 29.6913 50.8402 29.5043 47.6411C29.3174 44.4419 30.3597 41.2921 32.4183 38.8361C34.4768 36.3801 37.396 34.8034 40.5786 34.4286C43.7612 34.0537 46.9668 34.9091 49.5396 36.8196C52.1125 38.7301 53.8582 41.5514 54.4197 44.7065C54.9811 47.8615 54.3158 51.1119 52.56 53.7927C50.8041 56.4735 48.0904 58.382 44.9738 59.1281C44.0135 59.3572 43.0296 59.4731 42.0424 59.4734ZM42.087 35.0484C41.153 35.0494 40.2222 35.1594 39.3136 35.3759C37.0296 35.9204 34.9582 37.13 33.3615 38.8517C31.7648 40.5733 30.7145 42.7297 30.3434 45.0483C29.9722 47.3669 30.2968 49.7435 31.2762 51.8775C32.2557 54.0116 33.846 55.8073 35.846 57.0376C37.8459 58.2679 40.1658 58.8775 42.5122 58.7894C44.8587 58.7013 47.1262 57.9195 49.0283 56.5427C50.9304 55.1659 52.3816 53.2561 53.1983 51.0546C54.015 48.8531 54.1606 46.4589 53.6166 44.1747C52.9987 41.5793 51.5255 39.2672 49.4341 37.6106C47.3428 35.9541 44.7549 35.0492 42.087 35.0418V35.0484Z" fill="#1D1D1B"/>
<path d="M31.8757 47.8074C31.7894 47.8068 31.7067 47.773 31.6448 47.7127C31.5829 47.6525 31.5467 47.5706 31.5439 47.4843C31.4932 46.0883 31.7181 44.6961 32.2057 43.387C32.6933 42.0779 33.434 40.8777 34.3856 39.855C35.3371 38.8323 36.4808 38.0072 37.7514 37.4266C39.0219 36.846 40.3945 36.5214 41.7905 36.4714C41.8344 36.4698 41.8781 36.4769 41.9193 36.4922C41.9605 36.5075 41.9982 36.5307 42.0303 36.5606C42.0625 36.5905 42.0884 36.6264 42.1067 36.6663C42.125 36.7062 42.1352 36.7495 42.1368 36.7934C42.1384 36.8372 42.1315 36.881 42.1162 36.9221C42.1009 36.9633 42.0775 37.001 42.0476 37.0332C42.0178 37.0654 41.9818 37.0913 41.9419 37.1095C41.902 37.1278 41.8589 37.1381 41.815 37.1397C39.1719 37.2349 36.6748 38.3761 34.8731 40.3123C33.0714 42.2485 32.1126 44.8212 32.2077 47.4643C32.2107 47.5526 32.1786 47.6385 32.1185 47.7032C32.0584 47.7679 31.9751 47.8061 31.8869 47.8095L31.8757 47.8074Z" fill="#1D1D1B"/>
<path d="M45.7043 51.6219L42.9979 50.5259C42.912 50.4919 42.8192 50.479 42.7274 50.4883C42.6355 50.4976 42.5472 50.5289 42.4699 50.5794L40.0352 52.1877C39.9463 52.2487 39.842 52.2832 39.7342 52.2873C39.6265 52.2914 39.5197 52.2649 39.4264 52.2108C39.3331 52.1567 39.2572 52.0773 39.2073 51.9817C39.1573 51.8861 39.1354 51.7783 39.1442 51.6708L39.3492 48.7595C39.3562 48.6674 39.3406 48.575 39.3037 48.4904C39.2668 48.4058 39.2098 48.3314 39.1375 48.2738L36.8543 46.454C36.7709 46.3873 36.7078 46.2986 36.6723 46.1979C36.6368 46.0972 36.6303 45.9886 36.6535 45.8844C36.6767 45.7801 36.7287 45.6845 36.8036 45.6084C36.8785 45.5323 36.9732 45.4788 37.0771 45.4539L39.9105 44.7499C40.0003 44.7272 40.0832 44.6831 40.1522 44.6215C40.2212 44.5598 40.2743 44.4824 40.307 44.3958L41.3317 41.6648C41.3689 41.565 41.4333 41.4777 41.5177 41.4126C41.602 41.3476 41.7028 41.3075 41.8087 41.2968C41.9147 41.2861 42.0215 41.3054 42.1171 41.3523C42.2127 41.3992 42.2932 41.472 42.3496 41.5623L43.8955 44.0394C43.9433 44.116 44.0086 44.1802 44.0861 44.2267C44.1635 44.2731 44.2509 44.3005 44.341 44.3066L47.2569 44.4381C47.3632 44.4428 47.4659 44.4771 47.5537 44.5372C47.6414 44.5972 47.7106 44.6806 47.7535 44.7779C47.7963 44.8752 47.8111 44.9825 47.7962 45.0878C47.7813 45.193 47.7372 45.292 47.6689 45.3736L45.7912 47.6011C45.7321 47.6722 45.6909 47.7565 45.6711 47.8468C45.6514 47.9372 45.6535 48.0309 45.6775 48.1202L46.455 50.9335C46.4837 51.0351 46.4836 51.1428 46.4548 51.2444C46.4259 51.3459 46.3695 51.4375 46.2916 51.5089C46.2138 51.5802 46.1177 51.6286 46.014 51.6485C45.9103 51.6685 45.8031 51.6593 45.7043 51.6219Z" fill="white"/>
<path d="M39.7213 52.6168C39.5607 52.6162 39.4031 52.5732 39.2646 52.492C39.1175 52.4079 38.9976 52.2835 38.9187 52.1336C38.8398 51.9837 38.8052 51.8144 38.8191 51.6456L39.0241 48.7364C39.0262 48.698 39.0191 48.6596 39.0036 48.6244C38.9882 48.5892 38.9646 48.5581 38.9349 48.5337L36.654 46.7138C36.5215 46.609 36.4211 46.4691 36.3642 46.31C36.3073 46.151 36.2962 45.9792 36.3322 45.8142C36.3682 45.6491 36.4498 45.4974 36.5677 45.3765C36.6856 45.2556 36.8351 45.1702 36.9992 45.13L39.8304 44.4239C39.8676 44.4151 39.9021 44.3973 39.9309 44.372C39.9596 44.3468 39.9817 44.3149 39.9953 44.2792L41.0221 41.546C41.0816 41.3883 41.1841 41.2504 41.3177 41.1478C41.4514 41.0452 41.611 40.982 41.7787 40.9654C41.9464 40.9487 42.1155 40.9792 42.2667 41.0535C42.418 41.1277 42.5455 41.2427 42.6349 41.3855L44.1808 43.8603C44.2 43.8936 44.2276 43.9215 44.2607 43.941C44.2939 43.9605 44.3317 43.9711 44.3702 43.9717L47.286 44.1032C47.4547 44.1105 47.618 44.1649 47.7574 44.2603C47.8968 44.3557 48.0067 44.4883 48.0746 44.643C48.1426 44.7976 48.1658 44.9682 48.1417 45.1354C48.1177 45.3026 48.0474 45.4597 47.9387 45.5889L46.0608 47.8165C46.0347 47.8465 46.0167 47.8828 46.0085 47.9217C46.0003 47.9607 46.0022 48.0012 46.0141 48.0392L46.7892 50.8526C46.8343 51.0151 46.833 51.1871 46.7854 51.349C46.7379 51.5108 46.646 51.6562 46.5201 51.7686C46.3943 51.881 46.2395 51.9559 46.0733 51.9849C45.9071 52.014 45.7361 51.996 45.5796 51.9329L42.8732 50.837C42.8371 50.8222 42.7978 50.8165 42.759 50.8204C42.7202 50.8243 42.6829 50.8375 42.6505 50.8592L40.2136 52.4675C40.0677 52.5646 39.8965 52.6165 39.7213 52.6168ZM41.8686 41.6283H41.8441C41.8001 41.6323 41.7582 41.6486 41.7231 41.6754C41.688 41.7022 41.6613 41.7384 41.6459 41.7798L40.6212 44.513C40.5696 44.6503 40.4854 44.7731 40.376 44.8708C40.2667 44.9686 40.1352 45.0384 39.993 45.0743L37.1596 45.7783C37.1168 45.789 37.0778 45.8114 37.0471 45.8431C37.0165 45.8748 36.9953 45.9145 36.986 45.9576C36.9767 46.0008 36.9798 46.0457 36.9947 46.0872C37.0096 46.1287 37.0359 46.1652 37.0705 46.1926L39.3515 48.0125C39.4671 48.1031 39.5584 48.2208 39.6175 48.3553C39.6766 48.4898 39.7015 48.6368 39.6901 48.7832L39.4851 51.6945C39.4802 51.7392 39.4881 51.7844 39.5079 51.8247C39.5277 51.865 39.5585 51.8989 39.5968 51.9223C39.6352 51.9457 39.6795 51.9576 39.7244 51.9568C39.7693 51.9559 39.8131 51.9421 39.8505 51.9173L42.2874 50.3091C42.4096 50.2279 42.5498 50.1778 42.6957 50.1631C42.8417 50.1483 42.9889 50.1694 43.1249 50.2244L45.8292 51.3204C45.8701 51.3371 45.9149 51.3419 45.9585 51.3344C46.0021 51.3269 46.0427 51.3072 46.0756 51.2777C46.1086 51.2482 46.1327 51.21 46.145 51.1675C46.1574 51.1251 46.1575 51.08 46.1454 51.0375L45.3703 48.2241C45.33 48.083 45.3253 47.9342 45.3563 47.7908C45.3874 47.6474 45.4533 47.5139 45.5484 47.4022L47.4263 45.1746C47.4563 45.1417 47.4757 45.1005 47.4821 45.0564C47.4884 45.0123 47.4814 44.9674 47.462 44.9273C47.4456 44.8862 47.4173 44.8509 47.3808 44.8259C47.3443 44.8009 47.3013 44.7874 47.257 44.787L44.3411 44.6556C44.1944 44.6488 44.0515 44.6066 43.9247 44.5325C43.7978 44.4584 43.6907 44.3546 43.6127 44.2301L42.0691 41.7553C42.0512 41.7178 42.0231 41.686 41.9881 41.6635C41.953 41.6411 41.9124 41.6288 41.8708 41.6283H41.8686Z" fill="black"/>
<path d="M42.5394 57.7357C42.4508 57.7371 42.3653 57.7034 42.3016 57.6418C42.2379 57.5802 42.2012 57.4957 42.1998 57.4071C42.1983 57.3185 42.232 57.2329 42.2936 57.1692C42.3552 57.1055 42.4397 57.0689 42.5283 57.0674C45.1707 56.9716 47.6668 55.8305 49.468 53.8948C51.2691 51.9591 52.2278 49.3874 52.1334 46.745C52.1316 46.7012 52.1386 46.6574 52.1537 46.6162C52.1689 46.5749 52.1919 46.5371 52.2217 46.5048C52.2515 46.4725 52.2874 46.4464 52.3273 46.428C52.3672 46.4096 52.4102 46.3993 52.4541 46.3975C52.5424 46.3957 52.628 46.4284 52.6926 46.4888C52.7571 46.5491 52.7954 46.6323 52.7995 46.7206C52.8982 49.5392 51.8748 52.2819 49.9538 54.3469C48.0329 56.412 45.3712 57.6306 42.5528 57.7357H42.5394Z" fill="#1D1D1B"/>
<path d="M52.1709 45.3995C52.0449 45.399 51.9226 45.3558 51.8243 45.2769C51.726 45.198 51.6573 45.088 51.6296 44.965C49.9701 37.7144 43.5771 37.4249 43.5125 37.4226C43.3648 37.4179 43.2249 37.3548 43.1239 37.247C43.0228 37.1392 42.9687 36.9956 42.9734 36.8479C42.9782 36.7002 43.0413 36.5605 43.1491 36.4594C43.2569 36.3583 43.4003 36.3042 43.548 36.3089C43.6216 36.3089 50.8678 36.6386 52.7144 44.7178C52.7312 44.7892 52.7336 44.8632 52.7216 44.9356C52.7096 45.0079 52.6834 45.0773 52.6445 45.1394C52.6056 45.2016 52.5546 45.2553 52.4947 45.2977C52.4348 45.34 52.3671 45.3701 52.2956 45.3861C52.2546 45.3948 52.2129 45.3993 52.1709 45.3995Z" fill="white"/>
<path d="M27.7259 37.7707C27.6679 37.7713 27.6108 37.7558 27.561 37.7261C27.4863 37.6827 27.4316 37.6119 27.4083 37.5287C27.385 37.4455 27.3951 37.3565 27.4363 37.2806C27.4943 37.1782 28.8975 34.7412 31.8758 32.6028C34.6223 30.6337 39.2757 28.5799 45.838 29.9855C45.9248 30.0038 46.0009 30.0559 46.0493 30.1302C46.0978 30.2046 46.1147 30.2952 46.0964 30.382C46.0781 30.4689 46.026 30.5449 45.9516 30.5933C45.8773 30.6418 45.7867 30.6588 45.6998 30.6404C40.6322 29.5534 36.1215 30.3909 32.2879 33.1286C30.5868 34.3298 29.1356 35.8504 28.0154 37.6058C27.9861 37.6566 27.944 37.6986 27.8931 37.7275C27.8422 37.7565 27.7844 37.7715 27.7259 37.7707Z" fill="#1D1D1B"/>
<path d="M12.3001 71.6231L7.34969 73.067C4.35225 73.9412 2.63107 77.0798 3.50531 80.0772L18.2347 130.579C19.1089 133.576 22.2475 135.297 25.2449 134.423L30.1954 132.979C33.1928 132.105 34.914 128.966 34.0398 125.969L19.3104 75.4675C18.4362 72.47 15.2976 70.7488 12.3001 71.6231Z" fill="#2A3B8E"/>
<path d="M23.6364 135.045C22.3404 135.044 21.0796 134.623 20.0427 133.846C19.0059 133.069 18.2488 131.976 17.8848 130.732L3.15643 80.2319C2.71189 78.7074 2.89106 77.0687 3.65469 75.6763C4.41833 74.284 5.70382 73.2521 7.22832 72.8075L12.1801 71.3618C13.7046 70.9197 15.3421 71.1001 16.7338 71.8634C18.1255 72.6267 19.1579 73.9106 19.6045 75.4338L34.333 125.936C34.7769 127.461 34.5973 129.099 33.8338 130.492C33.0702 131.884 31.7852 132.916 30.261 133.361L25.3092 134.804C24.7658 134.963 24.2026 135.044 23.6364 135.045ZM13.8552 71.7828C13.3512 71.7858 12.8501 71.8608 12.3672 72.0056L7.4154 73.4513C6.06104 73.8462 4.91914 74.763 4.24073 75.9999C3.56231 77.2368 3.40301 78.6926 3.79794 80.047L18.5264 130.547C18.9229 131.901 19.8399 133.042 21.0763 133.72C22.3128 134.398 23.7678 134.558 25.1221 134.165L30.0739 132.721L30.1675 133.042L30.0739 132.721C31.4283 132.326 32.5703 131.41 33.2487 130.173C33.9271 128.936 34.0863 127.48 33.6914 126.126L18.963 75.6231C18.6397 74.5185 17.9673 73.5483 17.0465 72.8576C16.1258 72.167 15.0062 71.793 13.8552 71.7917V71.7828Z" fill="#1D1D1B"/>
<path d="M17.1653 63.4521L95.5033 30.6428C95.9791 30.4431 96.4899 30.3398 97.006 30.3389C97.522 30.338 98.0331 30.4396 98.5097 30.6377C98.9862 30.8357 99.4186 31.1264 99.782 31.4928C100.145 31.8592 100.432 32.2941 100.627 32.7723L104.458 42.1903L17.1653 63.4521Z" fill="white"/>
<path d="M17.1651 63.7854C17.0882 63.785 17.0139 63.7581 16.9545 63.7093C16.8952 63.6604 16.8545 63.5926 16.8393 63.5172C16.8242 63.4418 16.8354 63.3637 16.8712 63.2956C16.907 63.2276 16.9652 63.174 17.0359 63.1439L95.3739 30.3256C95.8908 30.1075 96.446 29.9943 97.0071 29.9927C97.5682 29.9911 98.124 30.101 98.6422 30.3162C99.1604 30.5313 99.6307 30.8474 100.026 31.246C100.421 31.6446 100.732 32.1176 100.943 32.6378L104.774 42.0559C104.794 42.0995 104.805 42.147 104.805 42.1951C104.805 42.2432 104.794 42.2907 104.774 42.3343C104.751 42.3774 104.72 42.4152 104.681 42.4451C104.643 42.4751 104.599 42.4965 104.551 42.508L17.2586 63.7765C17.228 63.784 17.1966 63.787 17.1651 63.7854ZM97.0111 30.6642C96.5376 30.6645 96.0689 30.7592 95.6323 30.9427L21.1948 62.1281L104.003 41.9511L100.319 32.8918C100.051 32.2339 99.5936 31.6706 99.0045 31.2739C98.4154 30.8771 97.7214 30.6649 97.0111 30.6642Z" fill="black"/>
<path d="M107.063 34.9176L14.7597 61.839C8.2971 63.7239 4.58609 70.4908 6.47099 76.9534L22.4122 131.61C24.2971 138.072 31.0641 141.783 37.5267 139.898L129.83 112.977C136.293 111.092 140.004 104.325 138.119 97.8625L122.177 43.2061C120.293 36.7436 113.526 33.0327 107.063 34.9176Z" fill="#2A3B8E"/>
<path d="M34.0903 140.781C31.3801 140.779 28.7437 139.899 26.5753 138.273C24.407 136.647 22.8234 134.363 22.0616 131.762L6.12366 77.107C5.19381 73.9183 5.56854 70.4908 7.16553 67.5784C8.76252 64.666 11.451 62.5071 14.6395 61.5767L106.942 34.6524C110.131 33.7263 113.556 34.1027 116.468 35.6992C119.379 37.2957 121.539 39.9818 122.472 43.1683L138.41 97.8231C139.34 101.012 138.965 104.439 137.368 107.352C135.771 110.264 133.083 112.423 129.894 113.353L37.592 140.271C36.4548 140.606 35.2758 140.777 34.0903 140.781ZM110.466 34.8217C109.335 34.8226 108.21 34.9846 107.125 35.3029L14.8221 62.2182C11.8041 63.0995 9.25955 65.1433 7.74787 67.9001C6.23619 70.657 5.8811 73.9013 6.7607 76.9199L22.7143 131.575C23.5978 134.591 25.6418 137.135 28.3979 138.646C31.154 140.158 34.3972 140.515 37.4161 139.638L129.718 112.721L129.812 113.042L129.718 112.721C132.737 111.84 135.282 109.796 136.794 107.039C138.305 104.282 138.66 101.038 137.78 98.0192L121.84 43.3643C121.12 40.9057 119.626 38.7456 117.578 37.206C115.531 35.6665 113.041 34.8301 110.479 34.8217H110.466Z" fill="black"/>
<path d="M125.399 62.3397L92.946 71.8049C90.5721 72.4973 89.209 74.983 89.9014 77.3569L92.1086 84.9248C92.801 87.2987 95.2867 88.6618 97.6606 87.9695L130.113 78.5042C132.487 77.8118 133.85 75.3261 133.158 72.9522L130.951 65.3843C130.258 63.0104 127.773 61.6473 125.399 62.3397Z" fill="#75CC68"/>
<path d="M96.3743 88.5579C95.3347 88.555 94.3238 88.2159 93.4928 87.5912C92.6617 86.9665 92.055 86.0898 91.7633 85.0919L89.5558 77.5183C89.1993 76.2939 89.3436 74.9781 89.9568 73.86C90.5699 72.7419 91.6018 71.9129 92.8258 71.5551L125.283 62.0904C125.889 61.913 126.525 61.8568 127.153 61.9252C127.781 61.9936 128.389 62.1851 128.943 62.4888C129.497 62.7925 129.985 63.2025 130.381 63.6953C130.776 64.188 131.07 64.7538 131.246 65.3604L133.456 72.934C133.811 74.1586 133.666 75.4742 133.053 76.592C132.439 77.7099 131.408 78.5388 130.184 78.8971L130.09 78.5763L130.184 78.8971L97.7286 88.3619C97.2888 88.4916 96.8328 88.5576 96.3743 88.5579ZM126.635 62.5648C126.241 62.5649 125.848 62.6219 125.47 62.7341L93.0129 72.1989C91.9619 72.5077 91.0758 73.2198 90.5483 74.1798C90.0207 75.1398 89.8946 76.2695 90.1974 77.3223L92.4048 84.8959C92.7124 85.9507 93.4264 86.84 94.3897 87.3685C95.3529 87.8969 96.4867 88.0211 97.5415 87.7137L129.997 78.2467C131.05 77.938 131.938 77.2243 132.467 76.2618C132.995 75.2993 133.12 74.1668 132.815 73.1122L130.605 65.5386C130.354 64.6794 129.832 63.9243 129.116 63.3864C128.401 62.8484 127.53 62.5562 126.635 62.5536V62.5648Z" fill="#1D1E1B"/>
<path d="M98.6977 82.9491C100.9 82.9491 102.685 81.164 102.685 78.9619C102.685 76.7598 100.9 74.9746 98.6977 74.9746C96.4956 74.9746 94.7104 76.7598 94.7104 78.9619C94.7104 81.164 96.4956 82.9491 98.6977 82.9491Z" fill="#FFD27B"/>
<path d="M98.6971 83.2835C97.8419 83.2835 97.0059 83.03 96.2948 82.5548C95.5837 82.0796 95.0297 81.4041 94.7025 80.6139C94.3753 79.8238 94.2898 78.9543 94.4568 78.1156C94.6238 77.2768 95.0358 76.5064 95.6407 75.9019C96.2456 75.2973 97.0162 74.8856 97.8551 74.719C98.6939 74.5524 99.5633 74.6384 100.353 74.966C101.143 75.2936 101.818 75.8481 102.293 76.5595C102.768 77.2708 103.021 78.1069 103.021 78.9621C103.02 80.1082 102.564 81.2071 101.753 82.0174C100.942 82.8276 99.8433 83.2829 98.6971 83.2835ZM98.6971 75.3067C97.9742 75.3067 97.2675 75.5211 96.6664 75.9227C96.0652 76.3244 95.5967 76.8953 95.32 77.5633C95.0434 78.2312 94.9709 78.9662 95.112 79.6753C95.253 80.3844 95.6012 81.0356 96.1124 81.5468C96.6236 82.058 97.275 82.4062 97.9841 82.5473C98.6931 82.6883 99.428 82.616 100.096 82.3393C100.764 82.0626 101.335 81.5941 101.736 80.993C102.138 80.3919 102.353 79.6851 102.353 78.9621C102.352 77.9928 101.967 77.0634 101.281 76.378C100.596 75.6926 99.6664 75.3073 98.6971 75.3067Z" fill="black"/>
<path d="M16.2785 65.1157C16.198 65.1157 16.1204 65.0867 16.0596 65.034C15.9989 64.9813 15.9591 64.9085 15.9477 64.8289C15.9363 64.7493 15.954 64.6682 15.9976 64.6006C16.0412 64.533 16.1077 64.4834 16.1849 64.4608L106.137 37.8753C106.22 37.8568 106.307 37.8702 106.38 37.9132C106.453 37.9561 106.507 38.0252 106.531 38.1064C106.555 38.1877 106.547 38.2749 106.509 38.3507C106.471 38.4265 106.406 38.4851 106.327 38.5145L16.3743 65.1025C16.3431 65.1113 16.3108 65.1157 16.2785 65.1157Z" fill="#1D1D1B"/>
<path d="M93.6026 73.9788C93.5219 73.9793 93.4438 73.9507 93.3826 73.8982C93.3215 73.8457 93.2813 73.7728 93.2696 73.693C93.258 73.6133 93.2755 73.5319 93.3191 73.4641C93.3627 73.3962 93.4293 73.3465 93.5067 73.3239L125.626 63.7967C125.711 63.7713 125.802 63.7807 125.88 63.8229C125.959 63.8651 126.017 63.9367 126.042 64.0218C126.068 64.1068 126.058 64.1985 126.016 64.2766C125.974 64.3547 125.902 64.4129 125.817 64.4383L93.6894 73.9632C93.6614 73.9731 93.6322 73.9783 93.6026 73.9788Z" fill="#1D1D1B"/>
<path d="M98.0333 86.3864C97.9529 86.3864 97.8752 86.3575 97.8144 86.3048C97.7536 86.2521 97.714 86.1791 97.7026 86.0995C97.6912 86.0199 97.7089 85.9389 97.7525 85.8713C97.7961 85.8037 97.8626 85.7541 97.9398 85.7316L130.731 76.2044C130.774 76.19 130.819 76.1845 130.864 76.1881C130.909 76.1917 130.953 76.2043 130.993 76.2253C131.033 76.2462 131.068 76.2751 131.097 76.31C131.125 76.3449 131.146 76.3853 131.159 76.4287C131.171 76.472 131.175 76.5174 131.169 76.5621C131.164 76.6069 131.149 76.6501 131.126 76.689C131.104 76.728 131.074 76.762 131.037 76.789C131.001 76.816 130.96 76.8353 130.916 76.8459L98.1269 86.3731C98.0965 86.3819 98.065 86.3864 98.0333 86.3864Z" fill="#1D1D1B"/>
<path d="M12.5122 79.6257C14.2247 79.6257 15.6129 78.2375 15.6129 76.525C15.6129 74.8125 14.2247 73.4243 12.5122 73.4243C10.7997 73.4243 9.41138 74.8125 9.41138 76.525C9.41138 78.2375 10.7997 79.6257 12.5122 79.6257Z" fill="#FFD27B"/>
<path d="M12.5118 79.9596C11.8319 79.9596 11.1673 79.758 10.602 79.3802C10.0367 79.0024 9.59614 78.4655 9.33606 77.8373C9.07598 77.2092 9.00814 76.5179 9.14094 75.8511C9.27374 75.1844 9.60129 74.5719 10.0822 74.0913C10.5631 73.6107 11.1757 73.2836 11.8426 73.1512C12.5095 73.0189 13.2007 73.0872 13.8287 73.3477C14.4567 73.6082 14.9933 74.0491 15.3707 74.6146C15.7482 75.1801 15.9493 75.8449 15.9488 76.5247C15.9477 77.4357 15.5851 78.3091 14.9407 78.9531C14.2963 79.597 13.4228 79.959 12.5118 79.9596ZM12.5118 73.7559C11.9642 73.7559 11.4289 73.9183 10.9735 74.2226C10.5182 74.5268 10.1633 74.9592 9.95375 75.4651C9.74418 75.9711 9.68931 76.5278 9.79615 77.0649C9.90298 77.602 10.1667 78.0954 10.5539 78.4826C10.9411 78.8699 11.4345 79.1336 11.9716 79.2404C12.5087 79.3473 13.0654 79.2924 13.5713 79.0828C14.0773 78.8732 14.5097 78.5184 14.814 78.063C15.1182 77.6077 15.2806 77.0724 15.2806 76.5247C15.28 75.7906 14.9881 75.0866 14.469 74.5675C13.9498 74.0484 13.246 73.7565 12.5118 73.7559Z" fill="black"/>
<path d="M27.3558 130.362C29.0683 130.362 30.4565 128.973 30.4565 127.261C30.4565 125.548 29.0683 124.16 27.3558 124.16C25.6434 124.16 24.2551 125.548 24.2551 127.261C24.2551 128.973 25.6434 130.362 27.3558 130.362Z" fill="#FFD27B"/>
<path d="M27.356 130.696C26.6761 130.696 26.0116 130.494 25.4463 130.117C24.881 129.739 24.4405 129.202 24.1804 128.574C23.9203 127.945 23.8523 127.254 23.9851 126.587C24.1179 125.921 24.4456 125.308 24.9265 124.828C25.4074 124.347 26.02 124.02 26.6869 123.888C27.3538 123.755 28.045 123.824 28.673 124.084C29.301 124.344 29.8376 124.785 30.215 125.351C30.5924 125.916 30.7936 126.581 30.7932 127.261C30.792 128.172 30.4294 129.045 29.785 129.689C29.1406 130.333 28.267 130.695 27.356 130.696ZM27.356 124.492C26.8084 124.492 26.2731 124.655 25.8178 124.959C25.3624 125.263 25.0075 125.696 24.798 126.201C24.5884 126.707 24.5336 127.264 24.6405 127.801C24.7473 128.338 25.011 128.832 25.3982 129.219C25.7855 129.606 26.2788 129.87 26.8159 129.977C27.353 130.083 27.9097 130.029 28.4156 129.819C28.9216 129.61 29.354 129.255 29.6583 128.799C29.9625 128.344 30.1249 127.809 30.1249 127.261C30.1243 126.527 29.8324 125.823 29.3133 125.304C28.7942 124.785 28.0902 124.493 27.356 124.492Z" fill="black"/>
<path d="M100.914 81.2914C100.837 81.2918 100.762 81.2775 100.691 81.2491C100.623 81.2212 100.561 81.1803 100.509 81.1286C100.457 81.0768 100.416 81.0155 100.388 80.9478C100.36 80.8801 100.345 80.8076 100.345 80.7343C100.345 80.661 100.36 80.5884 100.388 80.5207C100.778 79.5717 100.807 78.7609 100.468 78.115C99.8845 77.0012 98.3608 76.627 98.3452 76.6248C98.2721 76.6107 98.2026 76.5821 98.1407 76.5407C98.0788 76.4993 98.0259 76.4459 97.9851 76.3837C97.9442 76.3215 97.9162 76.2518 97.9027 76.1786C97.8893 76.1054 97.8907 76.0303 97.9067 75.9576C97.9228 75.8849 97.9533 75.8162 97.9964 75.7555C98.0395 75.6948 98.0942 75.6433 98.1576 75.6042C98.2209 75.5651 98.2914 75.5391 98.365 75.5276C98.4385 75.5162 98.5136 75.5195 98.5858 75.5376C98.6682 75.5555 100.624 76.0055 101.455 77.6004C101.952 78.5515 101.94 79.6764 101.417 80.9417C101.376 81.0427 101.307 81.1295 101.217 81.1916C101.128 81.2538 101.022 81.2884 100.914 81.2914Z" fill="white"/>
<path d="M115.094 69.9913C114.959 69.9916 114.828 69.9429 114.727 69.8543C114.625 69.7658 114.559 69.6433 114.541 69.5097C114.523 69.376 114.553 69.2404 114.628 69.1278C114.702 69.0152 114.814 68.9335 114.944 68.8976L126.908 65.5741C127.051 65.5345 127.203 65.5531 127.332 65.6258C127.46 65.6985 127.555 65.8193 127.595 65.9617C127.634 66.1041 127.616 66.2563 127.543 66.385C127.47 66.5137 127.349 66.6082 127.207 66.6478L115.243 69.9713C115.194 69.9843 115.144 69.991 115.094 69.9913Z" fill="white"/>
<path d="M20.041 115.188C19.922 115.188 19.8062 115.15 19.7104 115.08C19.6146 115.009 19.5438 114.91 19.5086 114.796L10.4248 85.3281C10.3813 85.1869 10.3958 85.0343 10.4649 84.9037C10.534 84.7732 10.6522 84.6755 10.7934 84.632C10.9346 84.5886 11.0872 84.603 11.2178 84.6722C11.3483 84.7413 11.4461 84.8595 11.4895 85.0006L20.5734 114.469C20.5951 114.538 20.6027 114.612 20.5959 114.685C20.5892 114.757 20.5682 114.828 20.534 114.893C20.4999 114.957 20.4533 115.014 20.397 115.061C20.3407 115.107 20.2758 115.142 20.2059 115.164C20.1526 115.181 20.0969 115.189 20.041 115.188Z" fill="white"/>
<path d="M22.4913 122.722C22.3712 122.722 22.2543 122.683 22.158 122.611C22.0617 122.539 21.9911 122.438 21.9567 122.323L20.8429 118.557C20.8013 118.415 20.8176 118.262 20.8884 118.133C20.9592 118.003 21.0787 117.907 21.2205 117.865C21.3622 117.823 21.5148 117.84 21.6445 117.91C21.7742 117.981 21.8704 118.101 21.9121 118.242L23.0259 122.007C23.051 122.09 23.0563 122.178 23.0412 122.264C23.0261 122.349 22.9912 122.43 22.9392 122.5C22.8872 122.569 22.8196 122.625 22.7418 122.664C22.664 122.703 22.5781 122.723 22.4913 122.722Z" fill="white"/>
<path d="M10.0746 98.5826C9.95446 98.5821 9.8378 98.5428 9.74186 98.4705C9.64591 98.3983 9.5759 98.297 9.54227 98.1817L4.44787 80.8915C4.40622 80.7497 4.42264 80.5971 4.49344 80.4674C4.56425 80.3377 4.68361 80.2415 4.8254 80.1999C4.96719 80.1582 5.11977 80.1745 5.24948 80.2453C5.37919 80.3161 5.4754 80.4356 5.51705 80.5774L10.6114 97.8586C10.6351 97.9417 10.6393 98.0291 10.6236 98.1141C10.608 98.1991 10.5729 98.2793 10.5212 98.3485C10.4694 98.4177 10.4025 98.474 10.3254 98.5131C10.2483 98.5521 10.1632 98.5728 10.0769 98.5736L10.0746 98.5826Z" fill="white"/>
<path d="M9.41097 112.972C9.33945 112.973 9.26971 112.95 9.21225 112.907C9.15479 112.865 9.1128 112.805 9.0925 112.736L0.00855387 83.0474C-0.0104548 82.9651 0.00249097 82.8787 0.0446643 82.8055C0.0868376 82.7323 0.15513 82.6778 0.235876 82.6529C0.316621 82.6281 0.403808 82.6348 0.479838 82.6716C0.555869 82.7085 0.615153 82.7727 0.645707 82.8514L9.72955 112.54C9.74259 112.582 9.74718 112.626 9.74303 112.67C9.73888 112.714 9.72611 112.757 9.7054 112.796C9.68469 112.835 9.65649 112.869 9.62241 112.897C9.58833 112.925 9.54901 112.946 9.50679 112.959C9.47556 112.967 9.44333 112.972 9.41097 112.972Z" fill="#1D1D1B"/>
<path d="M68.5677 32.5468C68.51 32.5469 68.4533 32.5323 68.403 32.5042C68.3527 32.4761 68.3104 32.4356 68.2803 32.3865C68.2576 32.3489 68.2425 32.3072 68.2359 32.2638C68.2294 32.2204 68.2315 32.1761 68.242 32.1335C68.2526 32.0909 68.2714 32.0507 68.2975 32.0154C68.3235 31.9801 68.3562 31.9503 68.3938 31.9276L85.6751 21.5139C85.751 21.4681 85.842 21.4543 85.9281 21.4756C86.0141 21.4969 86.0882 21.5515 86.134 21.6274C86.1798 21.7034 86.1936 21.7944 86.1723 21.8804C86.1509 21.9665 86.0963 22.0405 86.0204 22.0863L68.7392 32.5001C68.6871 32.5304 68.6279 32.5466 68.5677 32.5468Z" fill="#1D1D1B"/>
<path d="M31.2896 122.417C31.2617 122.418 31.2339 122.414 31.2072 122.406C31.1647 122.395 31.1248 122.376 31.0896 122.35C31.0545 122.324 31.0249 122.291 31.0025 122.253C30.9801 122.216 30.9653 122.174 30.9592 122.13C30.9531 122.087 30.9556 122.043 30.9666 122.001L35.7425 103.225C36.2364 101.266 36.2118 99.2126 35.6713 97.2664C35.1307 95.3202 34.0927 93.5481 32.6595 92.1248L18.1361 77.7706C18.0763 77.7078 18.0433 77.6243 18.044 77.5377C18.0446 77.451 18.0789 77.368 18.1396 77.3061C18.2003 77.2443 18.2825 77.2085 18.3692 77.2062C18.4558 77.2039 18.5399 77.2354 18.6038 77.2939L33.1295 91.6482C34.6452 93.1541 35.7429 95.0284 36.3146 97.087C36.8864 99.1457 36.9126 101.318 36.3907 103.389L31.6238 122.165C31.6054 122.239 31.5621 122.305 31.5013 122.351C31.4404 122.396 31.3658 122.42 31.2896 122.417Z" fill="#1D1D1B"/>
<path d="M160.992 108.365L91.4131 94.26C88.8172 93.7337 86.2863 95.4116 85.76 98.0075L78.677 132.946C78.1508 135.542 79.8285 138.073 82.4244 138.599L152.003 152.705C154.599 153.231 157.13 151.553 157.656 148.957L164.739 114.018C165.265 111.423 163.587 108.892 160.992 108.365Z" fill="#75CC68"/>
<path d="M152.991 153.107C152.648 153.107 152.307 153.072 151.971 153.004L82.3915 138.9C81.0588 138.629 79.8881 137.84 79.1363 136.706C78.3846 135.573 78.1133 134.187 78.3819 132.854L85.4655 97.9131C85.7372 96.5806 86.5262 95.4103 87.6595 94.6587C88.7928 93.9071 90.1778 93.6355 91.511 93.9035L161.093 108.008C161.753 108.141 162.381 108.403 162.94 108.779C163.5 109.155 163.979 109.638 164.352 110.199C164.724 110.761 164.982 111.39 165.111 112.052C165.24 112.713 165.237 113.393 165.102 114.054L158.021 148.993C157.784 150.153 157.155 151.196 156.238 151.945C155.322 152.695 154.175 153.105 152.991 153.107ZM152.1 152.35C152.674 152.467 153.266 152.469 153.841 152.357C154.416 152.245 154.963 152.021 155.452 151.697C155.94 151.373 156.36 150.956 156.687 150.47C157.013 149.984 157.241 149.438 157.357 148.863L164.44 113.922C164.557 113.348 164.56 112.757 164.448 112.181C164.336 111.606 164.112 111.059 163.788 110.571C163.464 110.082 163.047 109.663 162.561 109.336C162.075 109.009 161.529 108.781 160.954 108.665L91.3795 94.5718C90.22 94.3385 89.0153 94.5745 88.0295 95.228C87.0437 95.8814 86.3571 96.899 86.1203 98.0578L79.039 132.997C78.8051 134.156 79.0409 135.361 79.6944 136.347C80.348 137.333 81.366 138.02 82.5251 138.256L152.1 152.35Z" fill="#1D1E1B"/>
<path d="M102.8 105.881L90.3055 103.348C89.4615 103.177 88.6386 103.723 88.4675 104.567L87.5213 109.234C87.3502 110.078 87.8957 110.901 88.7397 111.072L101.234 113.605C102.078 113.776 102.901 113.231 103.072 112.387L104.018 107.719C104.189 106.875 103.644 106.052 102.8 105.881Z" fill="#FFD27B"/>
<path d="M101.579 113.952C101.451 113.951 101.324 113.938 101.198 113.914L88.7041 111.381C88.2132 111.281 87.7821 110.99 87.505 110.572C87.2278 110.155 87.1271 109.645 87.225 109.153L88.1717 104.476C88.2722 103.985 88.5629 103.554 88.9803 103.276C89.3977 102.999 89.9079 102.899 90.3992 102.996L102.894 105.529C103.384 105.63 103.816 105.92 104.093 106.338C104.37 106.755 104.47 107.265 104.373 107.757L103.426 112.435C103.339 112.862 103.107 113.246 102.77 113.522C102.433 113.798 102.011 113.95 101.575 113.952H101.579ZM90.0273 103.631C89.7446 103.632 89.4708 103.73 89.2521 103.909C89.0333 104.088 88.883 104.337 88.8266 104.614L87.8799 109.292C87.8162 109.61 87.8812 109.941 88.0608 110.211C88.2403 110.482 88.5197 110.67 88.8378 110.735L101.332 113.268C101.65 113.332 101.981 113.267 102.252 113.088C102.523 112.908 102.711 112.628 102.775 112.31L103.722 107.632C103.786 107.314 103.721 106.983 103.541 106.712C103.362 106.442 103.082 106.254 102.764 106.189L90.27 103.656C90.1903 103.638 90.109 103.627 90.0273 103.625V103.631Z" fill="black"/>
<path d="M121.173 109.607L108.679 107.074C107.835 106.903 107.012 107.449 106.841 108.293L105.895 112.96C105.724 113.804 106.269 114.627 107.113 114.798L119.607 117.331C120.451 117.502 121.274 116.957 121.445 116.113L122.391 111.445C122.563 110.601 122.017 109.778 121.173 109.607Z" fill="#FFD27B"/>
<path d="M119.954 117.669C119.827 117.67 119.7 117.657 119.576 117.631L107.082 115.099C106.591 114.998 106.16 114.708 105.882 114.29C105.605 113.873 105.505 113.363 105.602 112.871L106.549 108.193C106.65 107.703 106.94 107.271 107.358 106.994C107.775 106.717 108.285 106.616 108.777 106.714L121.269 109.247C121.76 109.347 122.191 109.638 122.469 110.055C122.746 110.473 122.846 110.983 122.748 111.475L121.803 116.152C121.715 116.579 121.483 116.963 121.146 117.24C120.808 117.516 120.386 117.668 119.95 117.669H119.954ZM108.405 107.349C108.122 107.35 107.849 107.448 107.63 107.627C107.411 107.806 107.261 108.055 107.204 108.332L106.257 113.009C106.194 113.328 106.259 113.658 106.438 113.929C106.618 114.199 106.897 114.388 107.215 114.453L119.707 116.986C120.026 117.049 120.357 116.984 120.628 116.805C120.899 116.625 121.087 116.346 121.153 116.028L122.097 111.35C122.13 111.192 122.13 111.03 122.1 110.872C122.069 110.714 122.008 110.564 121.919 110.43C121.83 110.296 121.716 110.181 121.583 110.091C121.449 110.001 121.299 109.938 121.142 109.906L108.647 107.374C108.567 107.358 108.486 107.35 108.405 107.349Z" fill="black"/>
<path d="M139.55 113.333L127.056 110.8C126.212 110.629 125.389 111.174 125.218 112.018L124.272 116.686C124.101 117.53 124.646 118.353 125.49 118.524L137.984 121.057C138.828 121.228 139.651 120.682 139.822 119.838L140.768 115.171C140.94 114.327 140.394 113.504 139.55 113.333Z" fill="#FFD27B"/>
<path d="M138.323 121.394C138.196 121.394 138.069 121.382 137.944 121.356L125.45 118.823C125.207 118.774 124.975 118.678 124.769 118.539C124.563 118.401 124.386 118.223 124.249 118.016C124.111 117.809 124.016 117.577 123.968 117.333C123.921 117.09 123.922 116.839 123.971 116.595L124.918 111.918C125.017 111.426 125.308 110.994 125.725 110.716C126.143 110.438 126.654 110.338 127.145 110.436L139.64 112.969C140.131 113.069 140.562 113.359 140.84 113.777C141.117 114.195 141.217 114.705 141.119 115.196L140.172 119.874C140.086 120.302 139.855 120.687 139.517 120.963C139.18 121.24 138.757 121.391 138.321 121.391L138.323 121.394ZM126.769 111.073C126.487 111.075 126.214 111.173 125.996 111.352C125.779 111.531 125.629 111.779 125.573 112.056L124.626 116.734C124.562 117.052 124.626 117.382 124.805 117.653C124.984 117.923 125.264 118.112 125.582 118.177L138.076 120.71C138.234 120.742 138.396 120.743 138.554 120.712C138.712 120.682 138.863 120.62 138.997 120.531C139.131 120.442 139.246 120.327 139.336 120.194C139.426 120.06 139.488 119.91 139.519 119.752L140.466 115.085C140.498 114.927 140.499 114.764 140.469 114.606C140.438 114.448 140.377 114.298 140.288 114.163C140.199 114.029 140.084 113.913 139.95 113.823C139.816 113.734 139.666 113.671 139.508 113.639L127.016 111.109C126.938 111.089 126.858 111.077 126.778 111.073H126.769Z" fill="black"/>
<path d="M156.315 118.838L143.822 116.288C142.978 116.116 142.154 116.661 141.982 117.505L141.029 122.172C140.857 123.016 141.402 123.84 142.246 124.012L154.739 126.562C155.583 126.734 156.406 126.189 156.579 125.345L157.531 120.678C157.703 119.834 157.159 119.01 156.315 118.838Z" fill="#FFD27B"/>
<path d="M156.704 125.119C156.578 125.119 156.451 125.106 156.328 125.081L143.836 122.55C143.344 122.45 142.913 122.16 142.635 121.742C142.357 121.325 142.256 120.814 142.354 120.323L143.301 115.645C143.401 115.154 143.691 114.722 144.109 114.445C144.527 114.168 145.037 114.067 145.529 114.166L158.023 116.699C158.514 116.798 158.946 117.089 159.223 117.507C159.5 117.924 159.6 118.435 159.502 118.926L158.555 123.604C158.468 124.031 158.236 124.415 157.899 124.691C157.562 124.967 157.14 125.118 156.704 125.119ZM156.461 124.426C156.779 124.49 157.11 124.426 157.381 124.247C157.651 124.067 157.84 123.788 157.905 123.47L158.851 118.792C158.916 118.474 158.851 118.143 158.671 117.872C158.492 117.602 158.212 117.413 157.894 117.349L145.402 114.816C145.244 114.783 145.082 114.782 144.924 114.813C144.766 114.843 144.615 114.905 144.482 114.995C144.347 115.083 144.232 115.197 144.141 115.331C144.051 115.464 143.988 115.614 143.956 115.772L143.011 120.45C142.979 120.607 142.978 120.77 143.009 120.928C143.04 121.086 143.101 121.236 143.19 121.371C143.279 121.505 143.393 121.62 143.526 121.71C143.66 121.8 143.809 121.863 143.967 121.895L156.461 124.426Z" fill="black"/>
<path d="M159.632 139.348L80.594 123.325L79.2733 129.839L158.311 145.862L159.632 139.348Z" fill="black"/>
<path d="M102.014 112.75C101.983 112.754 101.95 112.754 101.919 112.75C101.774 112.723 101.647 112.641 101.564 112.52C101.48 112.4 101.448 112.251 101.473 112.107L102.364 107.012C102.389 106.867 102.471 106.737 102.592 106.652C102.713 106.567 102.862 106.533 103.008 106.558C103.153 106.583 103.283 106.665 103.368 106.786C103.454 106.906 103.487 107.056 103.462 107.202L102.571 112.298C102.546 112.427 102.477 112.543 102.375 112.625C102.273 112.708 102.145 112.752 102.014 112.75Z" fill="white"/>
<path d="M120.191 116.741C120.16 116.743 120.128 116.743 120.097 116.741C119.952 116.716 119.822 116.635 119.736 116.514C119.65 116.394 119.616 116.245 119.641 116.099L120.532 110.782C120.56 110.64 120.642 110.514 120.761 110.432C120.88 110.35 121.026 110.317 121.169 110.341C121.312 110.364 121.44 110.443 121.526 110.559C121.612 110.676 121.649 110.821 121.63 110.965L120.739 116.284C120.715 116.412 120.648 116.528 120.547 116.612C120.447 116.695 120.321 116.741 120.191 116.741Z" fill="white"/>
<path d="M138.359 120.284C138.32 120.284 138.281 120.28 138.243 120.273C138.171 120.258 138.102 120.228 138.041 120.187C137.98 120.145 137.928 120.091 137.888 120.029C137.848 119.967 137.821 119.897 137.808 119.824C137.795 119.751 137.797 119.677 137.813 119.605L138.927 114.287C138.938 114.212 138.964 114.14 139.003 114.075C139.043 114.011 139.095 113.955 139.158 113.911C139.22 113.867 139.29 113.837 139.364 113.821C139.439 113.806 139.515 113.806 139.59 113.821C139.664 113.836 139.735 113.866 139.797 113.91C139.859 113.953 139.912 114.009 139.952 114.073C139.992 114.138 140.018 114.21 140.029 114.285C140.04 114.36 140.036 114.437 140.016 114.51L138.902 119.827C138.879 119.955 138.811 120.07 138.712 120.153C138.613 120.236 138.488 120.283 138.359 120.284Z" fill="white"/>
<path d="M158.963 136.015C158.933 136.018 158.902 136.018 158.872 136.015C158.726 135.991 158.596 135.91 158.51 135.791C158.424 135.671 158.389 135.522 158.413 135.376L159.75 127.179C159.761 127.106 159.787 127.037 159.826 126.975C159.864 126.913 159.914 126.859 159.974 126.816C160.033 126.773 160.1 126.742 160.172 126.725C160.243 126.709 160.317 126.706 160.389 126.718C160.461 126.729 160.53 126.755 160.593 126.794C160.655 126.832 160.709 126.882 160.752 126.942C160.795 127.001 160.825 127.068 160.842 127.14C160.859 127.211 160.862 127.285 160.85 127.357L159.513 135.554C159.49 135.683 159.423 135.8 159.322 135.885C159.222 135.969 159.095 136.015 158.963 136.015Z" fill="white"/>
<path d="M121.741 102.56C121.708 102.563 121.674 102.563 121.641 102.56L99.7065 98.5705C99.6309 98.5617 99.5579 98.5375 99.492 98.4994C99.4261 98.4613 99.3688 98.41 99.3235 98.3489C99.2782 98.2877 99.246 98.218 99.2287 98.1438C99.2114 98.0697 99.2095 97.9929 99.223 97.918C99.2366 97.8432 99.2653 97.7719 99.3075 97.7086C99.3497 97.6452 99.4045 97.5912 99.4684 97.5499C99.5323 97.5085 99.6039 97.4807 99.679 97.4681C99.754 97.4555 99.8308 97.4585 99.9047 97.4768L121.839 101.464C121.987 101.477 122.123 101.548 122.219 101.662C122.314 101.775 122.36 101.922 122.347 102.07C122.334 102.218 122.263 102.354 122.149 102.449C122.036 102.545 121.889 102.591 121.741 102.578V102.56Z" fill="white"/>
<path d="M131.489 104.776C131.454 104.776 131.419 104.772 131.384 104.765L125.624 103.651C125.551 103.639 125.481 103.612 125.419 103.572C125.356 103.532 125.303 103.481 125.261 103.42C125.218 103.359 125.189 103.29 125.174 103.218C125.158 103.145 125.158 103.071 125.172 102.998C125.185 102.925 125.214 102.856 125.255 102.795C125.296 102.733 125.348 102.68 125.41 102.639C125.472 102.598 125.541 102.57 125.613 102.556C125.686 102.542 125.761 102.543 125.833 102.558L131.594 103.672C131.741 103.685 131.877 103.757 131.972 103.872C132.067 103.986 132.112 104.133 132.098 104.281C132.084 104.429 132.012 104.565 131.898 104.659C131.784 104.754 131.637 104.799 131.489 104.785V104.776Z" fill="white"/>
<path d="M137.156 136.016L70.816 110.737C68.3409 109.793 65.5699 111.035 64.6267 113.51L51.9325 146.823C50.9893 149.298 52.2311 152.069 54.7062 153.012L121.047 178.292C123.522 179.235 126.293 177.993 127.236 175.518L139.93 142.206C140.873 139.731 139.631 136.96 137.156 136.016Z" fill="#FFD27B"/>
<path d="M122.688 178.98C122.062 178.979 121.443 178.864 120.859 178.642L54.5183 153.357C53.8885 153.118 53.3122 152.757 52.8221 152.294C52.332 151.832 51.9378 151.278 51.6622 150.663C51.3866 150.048 51.235 149.385 51.2159 148.712C51.1969 148.039 51.3108 147.368 51.5512 146.739L64.2482 113.426C64.7336 112.155 65.7034 111.129 66.9446 110.573C68.1858 110.017 69.597 109.976 70.8685 110.459L137.209 135.741C138.479 136.227 139.506 137.197 140.062 138.438C140.618 139.679 140.659 141.09 140.176 142.362L127.479 175.674C127.108 176.645 126.452 177.48 125.597 178.07C124.742 178.66 123.728 178.977 122.69 178.98H122.688ZM121.097 178.016C121.644 178.225 122.228 178.324 122.813 178.308C123.399 178.291 123.976 178.159 124.51 177.92C125.045 177.68 125.527 177.338 125.929 176.911C126.331 176.485 126.645 175.984 126.853 175.436L139.55 142.123C139.969 141.018 139.934 139.791 139.45 138.712C138.966 137.633 138.075 136.79 136.971 136.367L70.6301 111.083C69.5243 110.663 68.2973 110.699 67.2179 111.182C66.1386 111.666 65.2949 112.558 64.8719 113.662L52.1749 146.977C51.9657 147.524 51.8664 148.108 51.8829 148.693C51.8993 149.279 52.0311 149.856 52.2707 150.39C52.5103 150.925 52.853 151.407 53.2792 151.809C53.7054 152.211 54.2067 152.525 54.7544 152.733L121.097 178.016Z" fill="#1D1D1B"/>
<path d="M81.0065 123.264L71.9123 119.799C70.3063 119.187 68.5083 119.992 67.8963 121.598L67.0198 123.898C66.4078 125.504 67.2137 127.302 68.8197 127.914L77.9138 131.38C79.5198 131.992 81.3178 131.186 81.9298 129.58L82.8062 127.28C83.4182 125.674 82.6125 123.876 81.0065 123.264Z" fill="#FFD27B"/>
<path d="M78.9587 131.952C78.5388 131.953 78.1221 131.878 77.7291 131.73L68.6364 128.263C68.2125 128.102 67.8246 127.859 67.4949 127.548C67.1652 127.237 66.9 126.864 66.7148 126.45C66.5296 126.036 66.428 125.589 66.4156 125.136C66.4032 124.683 66.4804 124.232 66.6427 123.808L67.5203 121.507C67.6811 121.083 67.9241 120.695 68.2353 120.365C68.5464 120.035 68.9197 119.77 69.3337 119.585C69.7476 119.4 70.1941 119.298 70.6475 119.286C71.1008 119.274 71.5521 119.351 71.9754 119.514L81.0704 122.98C81.4941 123.141 81.8818 123.384 82.2113 123.696C82.5408 124.007 82.8056 124.38 82.9906 124.794C83.1756 125.208 83.277 125.654 83.2893 126.107C83.3015 126.561 83.2242 127.012 83.0618 127.435L82.1865 129.736C81.9385 130.389 81.4979 130.952 80.9232 131.35C80.3484 131.748 79.6666 131.962 78.9677 131.963L78.9587 131.952ZM77.9674 131.099C78.3082 131.229 78.6714 131.291 79.036 131.281C79.4006 131.27 79.7595 131.188 80.0924 131.039C80.4253 130.89 80.7256 130.677 80.9759 130.411C81.2263 130.146 81.4219 129.834 81.5516 129.493L82.4293 127.194C82.6908 126.506 82.6686 125.742 82.3675 125.07C82.0664 124.398 81.511 123.873 80.8232 123.61L71.7193 120.144C71.0337 119.887 70.2746 119.912 69.6071 120.212C68.9396 120.513 68.4177 121.065 68.1552 121.748L67.2776 124.047C67.016 124.735 67.0382 125.499 67.3393 126.171C67.6404 126.843 68.1958 127.368 68.8836 127.631L77.9674 131.099Z" fill="black"/>
<path d="M77.1423 134.543L68.0481 131.078C66.4421 130.466 64.644 131.272 64.032 132.878L63.1556 135.178C62.5436 136.784 63.3494 138.582 64.9554 139.194L74.0496 142.659C75.6556 143.271 77.4535 142.465 78.0655 140.859L78.942 138.559C79.554 136.953 78.7482 135.155 77.1423 134.543Z" fill="#75CC68"/>
<path d="M75.0919 143.231C74.6727 143.232 74.2567 143.156 73.8645 143.008L64.7694 139.542C64.3456 139.381 63.9577 139.138 63.6279 138.827C63.2982 138.515 63.0332 138.142 62.848 137.728C62.6628 137.314 62.561 136.868 62.5486 136.415C62.5363 135.962 62.6135 135.51 62.7759 135.087L63.6535 132.786C63.8143 132.362 64.0572 131.974 64.3684 131.644C64.6796 131.314 65.0531 131.049 65.4671 130.864C65.8811 130.679 66.3275 130.578 66.7809 130.566C67.2342 130.554 67.6854 130.631 68.1086 130.794L77.2036 134.261C77.6276 134.421 78.0158 134.664 78.3457 134.975C78.6755 135.287 78.9407 135.66 79.1259 136.074C79.3112 136.488 79.4128 136.934 79.4251 137.388C79.4373 137.841 79.3598 138.292 79.1972 138.716L78.3196 141.017C78.0713 141.67 77.6308 142.233 77.0561 142.63C76.4815 143.028 75.7997 143.242 75.1008 143.244L75.0919 143.231ZM66.8723 131.238C66.3106 131.239 65.7623 131.41 65.2992 131.728C64.8362 132.046 64.4799 132.496 64.2772 133.02L63.4018 135.321C63.2717 135.662 63.21 136.025 63.2203 136.389C63.2306 136.754 63.3127 137.113 63.4618 137.446C63.611 137.779 63.8244 138.079 64.0896 138.329C64.3549 138.58 64.6669 138.775 65.0079 138.905L74.1029 142.371C74.7912 142.632 75.5549 142.609 76.2267 142.308C76.8984 142.007 77.4236 141.452 77.687 140.765L78.5624 138.464C78.6925 138.123 78.7542 137.76 78.7438 137.395C78.7335 137.031 78.6514 136.672 78.5023 136.339C78.3531 136.006 78.1397 135.706 77.8745 135.456C77.6092 135.205 77.2972 135.01 76.9563 134.88L67.8613 131.414C67.5452 131.295 67.21 131.236 66.8723 131.238Z" fill="#1D1E1B"/>
<path d="M121.603 145.643C123.833 145.643 125.641 143.835 125.641 141.605C125.641 139.374 123.833 137.566 121.603 137.566C119.372 137.566 117.564 139.374 117.564 141.605C117.564 143.835 119.372 145.643 121.603 145.643Z" fill="white"/>
<path d="M121.599 145.977C120.89 145.976 120.193 145.804 119.566 145.474C118.939 145.144 118.402 144.666 118 144.083C117.599 143.499 117.345 142.827 117.26 142.124C117.176 141.421 117.263 140.707 117.515 140.045C117.799 139.3 118.282 138.646 118.911 138.155C119.539 137.664 120.29 137.354 121.082 137.259C121.875 137.164 122.678 137.287 123.405 137.615C124.132 137.944 124.755 138.465 125.208 139.122C125.66 139.779 125.924 140.547 125.971 141.344C126.018 142.14 125.847 142.935 125.475 143.64C125.103 144.346 124.546 144.937 123.863 145.349C123.179 145.761 122.396 145.978 121.599 145.977ZM121.599 137.898C120.923 137.897 120.26 138.081 119.682 138.43C119.104 138.779 118.632 139.279 118.317 139.877C118.002 140.474 117.857 141.147 117.897 141.821C117.937 142.495 118.16 143.146 118.543 143.702C118.926 144.258 119.453 144.7 120.069 144.978C120.684 145.256 121.364 145.361 122.035 145.281C122.705 145.201 123.341 144.938 123.874 144.523C124.406 144.108 124.815 143.554 125.056 142.923C125.269 142.364 125.344 141.762 125.274 141.167C125.203 140.573 124.99 140.004 124.652 139.51C124.314 139.016 123.861 138.611 123.332 138.331C122.804 138.05 122.215 137.902 121.616 137.898H121.599Z" fill="black"/>
<path d="M126.7 147.583C128.93 147.583 130.738 145.775 130.738 143.544C130.738 141.314 128.93 139.506 126.7 139.506C124.469 139.506 122.661 141.314 122.661 143.544C122.661 145.775 124.469 147.583 126.7 147.583Z" fill="#FFD27B"/>
<path d="M126.7 147.921C125.616 147.925 124.569 147.528 123.761 146.805C122.953 146.083 122.441 145.087 122.324 144.009C122.207 142.932 122.493 141.849 123.127 140.97C123.761 140.091 124.698 139.478 125.757 139.249C126.817 139.019 127.923 139.191 128.864 139.729C129.804 140.268 130.512 141.136 130.851 142.166C131.189 143.195 131.135 144.314 130.697 145.305C130.26 146.297 129.471 147.092 128.482 147.536C127.922 147.789 127.314 147.92 126.7 147.921ZM126.7 139.838C125.949 139.839 125.216 140.067 124.598 140.494C123.98 140.92 123.506 141.524 123.238 142.226C122.913 143.138 122.959 144.142 123.365 145.022C123.771 145.901 124.505 146.587 125.41 146.932C126.316 147.277 127.32 147.254 128.208 146.868C129.097 146.481 129.799 145.763 130.164 144.865C130.377 144.304 130.45 143.699 130.378 143.103C130.306 142.507 130.091 141.938 129.75 141.443C129.409 140.949 128.954 140.545 128.423 140.265C127.891 139.985 127.3 139.839 126.7 139.838Z" fill="black"/>
<path d="M122.79 166.42L60.6982 142.759L59.188 146.723L121.28 170.383L122.79 166.42Z" fill="#C49562"/>
<path d="M87.9482 130.729C88.1547 130.141 87.845 129.496 87.2565 129.29C86.668 129.083 86.0234 129.393 85.8169 129.981C85.6103 130.57 85.9199 131.214 86.5085 131.421C87.097 131.627 87.7416 131.318 87.9482 130.729Z" fill="#75CC68"/>
<path d="M86.9332 131.906C86.7679 131.906 86.6038 131.878 86.4477 131.824C86.101 131.702 85.8125 131.455 85.6394 131.131C85.4663 130.807 85.4213 130.43 85.5131 130.074C85.6048 129.718 85.8268 129.41 86.1351 129.21C86.4433 129.011 86.8153 128.934 87.1775 128.995C87.5397 129.057 87.8655 129.252 88.0906 129.542C88.3157 129.833 88.4236 130.197 88.3929 130.563C88.3621 130.929 88.195 131.27 87.9247 131.519C87.6544 131.768 87.3006 131.906 86.9332 131.906ZM86.6704 131.193C86.8189 131.245 86.9793 131.252 87.1316 131.213C87.2839 131.173 87.4212 131.09 87.526 130.973C87.6308 130.855 87.6985 130.71 87.7205 130.554C87.7425 130.398 87.7179 130.239 87.6497 130.098C87.5815 129.956 87.4727 129.838 87.3373 129.758C87.2018 129.678 87.0458 129.64 86.8887 129.649C86.7317 129.657 86.5808 129.713 86.4551 129.807C86.3294 129.902 86.2346 130.031 86.1826 130.18C86.1135 130.379 86.1259 130.597 86.2173 130.787C86.3087 130.977 86.4717 131.123 86.6704 131.193Z" fill="#1D1E1B"/>
<path d="M90.148 129.21C90.2817 129.767 90.745 132.3 88.346 133.443C88.3061 133.462 88.2753 133.496 88.2599 133.538C88.2446 133.579 88.2459 133.625 88.2635 133.666L88.3683 133.888C88.4327 134.023 88.5258 134.143 88.6411 134.238C88.7565 134.334 88.8914 134.403 89.0363 134.441C89.1812 134.479 89.3326 134.485 89.48 134.458C89.6273 134.432 89.7671 134.373 89.8896 134.287C90.9142 133.554 92.2642 132.1 91.8209 129.676C91.7885 129.507 91.7141 129.348 91.6046 129.215C91.4951 129.082 91.354 128.979 91.1941 128.915C91.0343 128.85 90.8609 128.827 90.6898 128.847C90.5187 128.868 90.3553 128.93 90.2148 129.03C90.1859 129.049 90.1639 129.077 90.1519 129.109C90.1399 129.142 90.1385 129.177 90.148 129.21Z" fill="#75CC68"/>
<path d="M89.2996 134.815C89.0421 134.813 88.7904 134.74 88.5727 134.602C88.355 134.465 88.1801 134.269 88.0678 134.038L87.963 133.815C87.9341 133.756 87.9173 133.691 87.9134 133.625C87.9096 133.56 87.9189 133.494 87.9407 133.432C87.9632 133.368 87.998 133.31 88.0431 133.26C88.0882 133.209 88.1428 133.169 88.2036 133.14C90.3265 132.124 89.9857 129.932 89.823 129.284C89.7987 129.186 89.8049 129.082 89.8407 128.988C89.8765 128.893 89.9403 128.812 90.0235 128.754C90.2101 128.623 90.4267 128.54 90.6534 128.514C90.8801 128.488 91.1098 128.519 91.3214 128.604C91.533 128.69 91.7197 128.827 91.8646 129.003C92.0095 129.18 92.108 129.39 92.1509 129.614C92.6365 132.287 91.0638 133.846 90.0837 134.557C89.8561 134.723 89.5816 134.814 89.2996 134.815ZM88.6313 133.679L88.6647 133.748C88.708 133.839 88.7707 133.92 88.8485 133.985C88.9263 134.05 89.0173 134.097 89.1151 134.122C89.2129 134.148 89.315 134.153 89.4146 134.135C89.5142 134.117 89.6088 134.078 89.6917 134.02C90.7319 133.276 91.888 131.93 91.4892 129.741C91.4694 129.627 91.4206 129.521 91.3476 129.432C91.2746 129.343 91.18 129.274 91.0727 129.233C90.9803 129.195 90.8808 129.177 90.781 129.18C90.6811 129.184 90.583 129.208 90.4935 129.253C90.6539 129.99 90.9658 132.458 88.6358 133.679H88.6313Z" fill="#1D1E1B"/>
<path d="M93.9954 128.609C94.1959 130.061 94.4097 134.2 90.8345 136.519C90.6464 136.639 90.5056 136.82 90.4361 137.032C90.3667 137.244 90.3728 137.474 90.4536 137.682L90.5716 137.976C90.648 138.184 90.7733 138.37 90.937 138.519C91.1007 138.668 91.2978 138.775 91.5118 138.832C91.7258 138.889 91.9503 138.893 92.1663 138.844C92.3822 138.796 92.5833 138.696 92.7524 138.553C94.7037 137.076 97.6953 133.875 96.7753 128.529C96.7462 128.275 96.6478 128.035 96.491 127.833C96.3342 127.632 96.125 127.477 95.8863 127.386C95.6476 127.296 95.3887 127.273 95.1377 127.319C94.8867 127.366 94.6533 127.481 94.4632 127.651L94.3429 127.747C94.2161 127.849 94.1175 127.982 94.0566 128.133C93.9958 128.284 93.9747 128.448 93.9954 128.609Z" fill="#75CC68"/>
<path d="M91.834 139.208C91.6835 139.208 91.5337 139.188 91.3885 139.148C91.1311 139.073 90.8947 138.939 90.698 138.757C90.5012 138.575 90.3494 138.35 90.2547 138.099L90.1367 137.805C90.0296 137.526 90.0215 137.219 90.114 136.935C90.2065 136.651 90.3938 136.408 90.6446 136.245C94.0104 134.065 93.8723 130.215 93.6562 128.661C93.6268 128.44 93.6546 128.216 93.7369 128.01C93.8192 127.804 93.9533 127.622 94.1262 127.482L94.2465 127.384C94.4824 127.178 94.7699 127.04 95.0782 126.985C95.3865 126.93 95.7039 126.959 95.9967 127.071C96.2895 127.182 96.5467 127.37 96.7406 127.616C96.9345 127.862 97.058 128.156 97.0978 128.467C98.0512 134.025 94.9058 137.344 92.9456 138.827C92.6265 139.072 92.2361 139.205 91.834 139.208ZM94.3178 128.563C94.5517 130.242 94.6965 134.41 91.0099 136.805C90.8867 136.882 90.7942 137 90.7483 137.138C90.7024 137.276 90.7059 137.426 90.7582 137.562L90.8741 137.856C90.9307 138.011 91.0228 138.151 91.143 138.264C91.2633 138.378 91.4084 138.461 91.5668 138.509C91.7356 138.549 91.9114 138.55 92.0807 138.512C92.25 138.473 92.408 138.396 92.5424 138.286C94.3824 136.894 97.3339 133.78 96.4384 128.572C96.419 128.374 96.3448 128.187 96.2241 128.029C96.1033 127.872 95.941 127.752 95.7555 127.683C95.57 127.613 95.3686 127.597 95.1743 127.636C94.9801 127.675 94.8007 127.767 94.6564 127.903L94.5361 127.999C94.4536 128.066 94.3898 128.154 94.3508 128.253C94.3118 128.352 94.2989 128.459 94.3134 128.565L94.3178 128.563Z" fill="#1D1E1B"/>
<path d="M132.596 156.398C132.525 156.398 132.454 156.385 132.388 156.358C132.251 156.303 132.142 156.195 132.084 156.06C132.026 155.924 132.024 155.771 132.079 155.634C132.097 155.591 133.885 151.121 136.734 144.327C137.501 142.5 137.547 140.925 136.873 139.649C135.661 137.348 132.515 136.677 132.484 136.671C132.413 136.656 132.345 136.627 132.284 136.587C132.223 136.546 132.171 136.493 132.131 136.432C132.091 136.371 132.063 136.303 132.049 136.231C132.035 136.159 132.035 136.085 132.05 136.014C132.064 135.942 132.093 135.874 132.134 135.813C132.175 135.753 132.227 135.701 132.288 135.66C132.349 135.62 132.418 135.592 132.49 135.578C132.561 135.564 132.635 135.564 132.707 135.579C132.856 135.61 136.4 136.368 137.857 139.13C138.695 140.716 138.661 142.611 137.761 144.759C134.914 151.544 133.128 156.006 133.11 156.05C133.069 156.153 132.998 156.241 132.906 156.303C132.814 156.365 132.706 156.398 132.596 156.398Z" fill="white"/>
<path d="M129.272 165.704C129.196 165.706 129.12 165.691 129.05 165.66C128.982 165.632 128.921 165.591 128.869 165.54C128.818 165.488 128.777 165.427 128.749 165.359C128.721 165.292 128.707 165.219 128.708 165.146C128.708 165.073 128.723 165.001 128.751 164.934L130.972 159.617C131.029 159.48 131.138 159.372 131.275 159.316C131.412 159.26 131.565 159.26 131.702 159.317C131.838 159.374 131.946 159.483 132.002 159.62C132.059 159.757 132.058 159.91 132.001 160.047L129.785 165.364C129.742 165.464 129.671 165.551 129.58 165.611C129.489 165.672 129.382 165.704 129.272 165.704Z" fill="white"/>
<path d="M79.8547 130.436C79.767 130.436 79.6806 130.415 79.6026 130.375C79.5245 130.335 79.457 130.277 79.4054 130.206C79.3538 130.135 79.3196 130.053 79.3056 129.966C79.2915 129.88 79.298 129.791 79.3246 129.708L80.6611 125.533C80.6831 125.463 80.7186 125.398 80.7658 125.342C80.8131 125.285 80.871 125.239 80.9363 125.205C81.0015 125.171 81.0727 125.151 81.146 125.145C81.2192 125.138 81.293 125.147 81.363 125.169C81.4329 125.192 81.4978 125.228 81.5538 125.276C81.6097 125.323 81.6556 125.381 81.6889 125.447C81.7223 125.513 81.7422 125.584 81.7478 125.657C81.7534 125.731 81.7444 125.804 81.7214 125.874L80.3848 130.048C80.349 130.161 80.2783 130.259 80.183 130.329C80.0877 130.398 79.9728 130.436 79.8547 130.436Z" fill="white"/>
<path d="M108.447 159.278C108.379 159.278 108.312 159.266 108.249 159.242L90.7446 152.595C90.6109 152.539 90.5041 152.434 90.4469 152.301C90.3897 152.168 90.3866 152.018 90.4381 151.882C90.4897 151.747 90.592 151.637 90.7232 151.576C90.8544 151.515 91.0043 151.507 91.1411 151.555L108.645 158.202C108.766 158.249 108.866 158.336 108.93 158.449C108.993 158.563 109.014 158.694 108.991 158.822C108.967 158.949 108.9 159.064 108.801 159.147C108.702 159.231 108.576 159.277 108.447 159.278Z" fill="white"/>
<path d="M47.9055 172.066C39.9287 172.066 34.6383 170.58 34.5759 170.565C34.4906 170.54 34.4184 170.483 34.3754 170.405C34.3323 170.327 34.322 170.236 34.3465 170.151C34.3711 170.065 34.4284 169.993 34.5061 169.95C34.5838 169.907 34.6755 169.897 34.7608 169.921C34.8299 169.941 41.8042 171.897 51.8126 171.278C61.0435 170.71 74.8186 167.774 88.0368 157.021C88.0708 156.994 88.11 156.973 88.1521 156.961C88.1941 156.948 88.2383 156.944 88.2819 156.949C88.3256 156.953 88.3679 156.966 88.4065 156.987C88.445 157.008 88.4791 157.036 88.5067 157.07C88.5344 157.104 88.555 157.144 88.5675 157.186C88.58 157.228 88.5842 157.272 88.5796 157.316C88.5751 157.359 88.5619 157.402 88.541 157.44C88.5201 157.479 88.4919 157.513 88.4578 157.54C75.0926 168.413 61.1615 171.376 51.8259 171.946C50.4605 172.031 49.1506 172.066 47.9055 172.066Z" fill="#1D1D1B"/>
<path d="M67.2383 176.337C67.1497 176.346 67.061 176.32 66.9916 176.264C66.9223 176.208 66.878 176.127 66.8686 176.038C66.8591 175.95 66.8853 175.861 66.9413 175.792C66.9972 175.722 67.0784 175.678 67.1671 175.669C67.3274 175.633 83.2498 172.02 88.8721 160.559C88.9114 160.48 88.9807 160.419 89.0647 160.391C89.1486 160.362 89.2404 160.368 89.3198 160.408C89.3993 160.447 89.4599 160.516 89.4883 160.6C89.5167 160.684 89.5106 160.776 89.4713 160.855C86.4552 167.006 80.5857 170.879 76.193 173.053C73.3592 174.462 70.3805 175.559 67.3096 176.323L67.2383 176.337Z" fill="#1D1D1B"/>
<path d="M95.9012 13.9919C99.587 13.9919 102.575 11.004 102.575 7.31822C102.575 3.63244 99.587 0.644531 95.9012 0.644531C92.2154 0.644531 89.2275 3.63244 89.2275 7.31822C89.2275 11.004 92.2154 13.9919 95.9012 13.9919Z" fill="#FFD27B"/>
<path d="M95.8879 14.3276C94.5718 14.3255 93.283 13.953 92.1688 13.2526C91.0545 12.5522 90.1599 11.5523 89.5873 10.3673C89.0147 9.18235 88.7874 7.86013 88.9311 6.55193C89.0749 5.24374 89.584 4.00243 90.4002 2.97004C91.2164 1.93765 92.3068 1.15592 93.5465 0.714227C94.7862 0.272529 96.1253 0.188726 97.4104 0.47244C98.6956 0.756154 99.8749 1.39594 100.813 2.31853C101.752 3.24112 102.412 4.40923 102.718 5.68931C103.147 7.49694 102.842 9.4011 101.869 10.9842C100.897 12.5672 99.3362 13.7 97.5296 14.1339C96.9918 14.262 96.4408 14.3269 95.8879 14.3276ZM95.9124 0.97581C95.4127 0.975918 94.9148 1.03499 94.4289 1.15179C93.2093 1.44296 92.1034 2.0893 91.2511 3.00898C90.3988 3.92866 89.8384 5.08043 89.6407 6.31863C89.443 7.55683 89.6169 8.82579 90.1405 9.96513C90.664 11.1045 91.5138 12.063 92.5821 12.7194C93.6504 13.3759 94.8893 13.7008 96.1423 13.6531C97.3953 13.6053 98.6059 13.1871 99.6212 12.4513C100.636 11.7155 101.411 10.6952 101.846 9.5193C102.281 8.34342 102.358 7.06485 102.067 5.84528C101.736 4.46083 100.949 3.22783 99.8331 2.34463C98.7168 1.46144 97.3358 0.979306 95.9124 0.97581Z" fill="#1D1D1B"/>
<path d="M90.3307 7.95258C90.2446 7.95263 90.1618 7.91912 90.0999 7.85926C90.038 7.79941 90.0018 7.71791 89.9989 7.63183C89.9429 6.05083 90.5162 4.5121 91.5932 3.35329C92.6701 2.19447 94.1628 1.51019 95.7437 1.45042C95.7876 1.44881 95.8313 1.45578 95.8725 1.47109C95.9136 1.48639 95.9514 1.50972 95.9835 1.53961C96.0157 1.5695 96.0416 1.60541 96.0599 1.64533C96.0781 1.68525 96.0884 1.72838 96.09 1.77226C96.0916 1.81614 96.0846 1.85989 96.0693 1.90104C96.054 1.9422 96.0307 1.97993 96.0008 2.01209C95.9709 2.04426 95.935 2.07028 95.8951 2.08855C95.8552 2.10683 95.812 2.11707 95.7682 2.11868C94.3642 2.17149 93.0384 2.77889 92.0817 3.80782C91.125 4.83676 90.6155 6.20314 90.6648 7.60725C90.6666 7.65102 90.6598 7.69471 90.6446 7.73581C90.6294 7.77691 90.6062 7.81466 90.5764 7.84675C90.5466 7.87885 90.5107 7.90473 90.4708 7.92289C90.4309 7.94105 90.3879 7.95115 90.3441 7.95258H90.3307Z" fill="#1D1D1B"/>
<path d="M96.167 13.3766C96.0784 13.3784 95.9927 13.3448 95.9288 13.2834C95.8649 13.222 95.828 13.1378 95.8262 13.0491C95.8245 12.9605 95.8579 12.8749 95.9193 12.8109C95.9808 12.747 96.065 12.7101 96.1536 12.7084C97.5576 12.6556 98.8834 12.0481 99.84 11.0191C100.797 9.99018 101.306 8.6238 101.257 7.21969C101.254 7.13108 101.286 7.04482 101.346 6.97986C101.406 6.9149 101.49 6.87652 101.579 6.87327C101.667 6.87002 101.754 6.9021 101.819 6.96246C101.884 7.02282 101.922 7.1066 101.925 7.19522C101.981 8.77638 101.407 10.3151 100.33 11.4737C99.2524 12.6322 97.7592 13.3157 96.1781 13.3743L96.167 13.3766Z" fill="#1D1D1B"/>
<path d="M97.8908 9.88367L96.4117 9.28447C96.365 9.26596 96.3144 9.25888 96.2644 9.26392C96.2144 9.26895 96.1664 9.28594 96.1243 9.3134L94.7878 10.1933C94.7392 10.2256 94.6825 10.2435 94.6242 10.2451C94.5659 10.2467 94.5083 10.232 94.4579 10.2026C94.4076 10.1731 94.3665 10.1301 94.3394 10.0785C94.3122 10.0268 94.3001 9.9686 94.3044 9.91042L94.4158 8.31993C94.4202 8.26959 94.4118 8.21896 94.3916 8.17266C94.3713 8.12637 94.3399 8.08589 94.3 8.05487L93.0525 7.05911C93.0073 7.02287 92.973 6.97477 92.9536 6.92011C92.9341 6.86545 92.9303 6.80637 92.9426 6.74967C92.9549 6.69297 92.9827 6.64089 93.023 6.59914C93.0632 6.55739 93.1143 6.52772 93.1706 6.51343L94.7298 6.12807C94.7802 6.11687 94.8269 6.09328 94.8658 6.05944C94.9047 6.0256 94.9345 5.98255 94.9526 5.93425L95.5139 4.43958C95.5343 4.38501 95.5696 4.33723 95.6157 4.30167C95.6619 4.26611 95.7171 4.24416 95.7751 4.23837C95.833 4.23257 95.8915 4.24311 95.9438 4.26882C95.9961 4.29454 96.04 4.33444 96.0708 4.3839L96.9151 5.73825C96.9426 5.78077 96.9797 5.81615 97.0234 5.84169C97.0671 5.86723 97.1163 5.88214 97.1669 5.8852L98.7595 5.95426C98.8175 5.9572 98.8735 5.97624 98.9213 6.0093C98.969 6.04236 99.0065 6.08809 99.0297 6.14134C99.0528 6.19459 99.0607 6.25334 99.0523 6.3108C99.0439 6.36826 99.0197 6.42225 98.9823 6.46666L97.9576 7.68952C97.9249 7.72802 97.9021 7.77389 97.8912 7.8232C97.8804 7.8725 97.8817 7.92376 97.8952 7.97242L98.3206 9.51168C98.3368 9.56909 98.3363 9.62991 98.3191 9.68702C98.302 9.74412 98.2689 9.79516 98.2238 9.83418C98.1788 9.87319 98.1235 9.8985 98.0645 9.90727C98.0055 9.91603 97.9453 9.90788 97.8908 9.88367Z" fill="white"/>
<path d="M94.6208 10.581C94.5065 10.5802 94.3944 10.5495 94.2956 10.4919C94.1911 10.4315 94.1057 10.3428 94.0493 10.236C93.993 10.1292 93.9679 10.0087 93.977 9.88827L94.0884 8.2956L92.8477 7.32214C92.7537 7.24664 92.6826 7.14638 92.6425 7.03271C92.6023 6.91905 92.5947 6.79646 92.6204 6.67868C92.6461 6.56089 92.704 6.4526 92.7879 6.36598C92.8717 6.27935 92.978 6.21788 93.0949 6.18836L94.6431 5.803L95.1866 4.32389C95.2287 4.21073 95.3017 4.1116 95.3973 4.03783C95.4929 3.96407 95.6072 3.91861 95.7274 3.90655C95.8475 3.89449 95.9687 3.91634 96.0771 3.96964C96.1854 4.02293 96.2766 4.10553 96.3404 4.20805L97.1846 5.56013L98.7618 5.62027C98.8821 5.62628 98.9983 5.66575 99.0975 5.73415C99.1967 5.80256 99.2749 5.89724 99.3232 6.00759C99.3716 6.11794 99.3882 6.23952 99.3713 6.3588C99.3543 6.47808 99.3045 6.59028 99.2274 6.68281L98.2027 7.9035L98.6304 9.42275C98.6634 9.53852 98.6629 9.66127 98.629 9.77678C98.5951 9.89229 98.5292 9.99577 98.4388 10.0753C98.3494 10.1551 98.2395 10.2084 98.1215 10.2292C98.0034 10.2501 97.8819 10.2377 97.7706 10.1935L96.2915 9.59416L94.9817 10.4719C94.8748 10.5431 94.7492 10.581 94.6208 10.581ZM93.2998 6.82758L94.5116 7.79212C94.5938 7.85714 94.659 7.94129 94.7013 8.03717C94.7436 8.13306 94.7619 8.23782 94.7545 8.34237L94.6453 9.89044L95.9395 9.0351C96.0269 8.97699 96.1272 8.94117 96.2316 8.93069C96.3361 8.9202 96.4415 8.93537 96.5387 8.97495L97.9755 9.55631L97.5611 8.06164C97.5334 7.96048 97.5309 7.85419 97.5534 7.75177C97.5759 7.64934 97.6228 7.55391 97.6903 7.47365L98.6861 6.28636L97.1268 6.21729C97.0222 6.21282 96.9202 6.18285 96.8297 6.13006C96.7393 6.07727 96.6631 6.00328 96.6077 5.91438L95.7858 4.60005L95.2423 6.0524C95.2055 6.14974 95.1458 6.23686 95.0683 6.30626C94.9907 6.37566 94.8976 6.42532 94.7968 6.45114L93.2998 6.82758ZM98.0178 9.57415L97.8909 9.88381L98.0178 9.57415Z" fill="black"/>
<path d="M101.134 6.18418C101.006 6.18329 100.882 6.13854 100.784 6.05747C100.685 5.9764 100.616 5.8639 100.59 5.73868C100.018 3.06564 96.9841 2.64686 96.8549 2.62013C96.7072 2.60152 96.573 2.52498 96.4817 2.40738C96.3904 2.28979 96.3496 2.14068 96.3682 1.99298C96.3868 1.84529 96.4633 1.71108 96.5809 1.6198C96.6985 1.52853 96.8476 1.48775 96.9953 1.50636C97.1557 1.52641 100.94 2.03866 101.673 5.48688C101.69 5.55888 101.691 5.63343 101.679 5.70616C101.666 5.77889 101.639 5.84834 101.599 5.91053C101.559 5.97271 101.508 6.02635 101.447 6.06835C101.386 6.11034 101.318 6.13985 101.245 6.15514C101.209 6.16879 101.172 6.17858 101.134 6.18418Z" fill="white"/>
<path d="M150.879 27.2589C150.824 27.2584 150.769 27.244 150.72 27.2172C150.671 27.1904 150.629 27.152 150.599 27.1052C142.78 15.0565 131.734 10.5323 123.842 8.85724C115.272 7.03957 108.472 8.09094 108.396 8.10208C108.307 8.11596 108.217 8.09401 108.144 8.04117C108.072 7.98832 108.023 7.90888 108.009 7.82026C107.996 7.73165 108.017 7.64117 108.07 7.56869C108.123 7.49621 108.203 7.4477 108.291 7.43382C108.36 7.42268 115.27 6.35126 123.955 8.18898C131.974 9.88636 143.21 14.484 151.158 26.7332C151.182 26.7698 151.199 26.8108 151.207 26.8539C151.215 26.8971 151.215 26.9414 151.206 26.9843C151.197 27.0273 151.179 27.0679 151.154 27.104C151.129 27.14 151.097 27.1708 151.06 27.1943C151.008 27.2338 150.945 27.2564 150.879 27.2589Z" fill="#1D1D1B"/>
<path d="M130.381 2.41478C130.336 2.41472 130.29 2.40572 130.248 2.38813C121.814 -1.28953 108.665 2.14757 108.531 2.18321C108.446 2.20596 108.355 2.19366 108.278 2.14917C108.201 2.10468 108.145 2.03155 108.123 1.94589C108.1 1.86022 108.112 1.76912 108.157 1.69246C108.201 1.6158 108.274 1.55989 108.36 1.53714C108.908 1.39012 121.866 -1.99566 130.515 1.77556C130.585 1.80664 130.642 1.86063 130.677 1.92859C130.711 1.99656 130.722 2.07434 130.706 2.14906C130.69 2.22378 130.65 2.29094 130.591 2.33929C130.532 2.38764 130.458 2.41423 130.381 2.41478Z" fill="#1D1D1B"/>
<path d="M35.5269 153.794C41.2315 153.794 45.856 149.169 45.856 143.465C45.856 137.76 41.2315 133.136 35.5269 133.136C29.8223 133.136 25.1978 137.76 25.1978 143.465C25.1978 149.169 29.8223 153.794 35.5269 153.794Z" fill="#FFD27B"/>
<path d="M35.5398 154.127C35.3661 154.127 35.1923 154.127 35.0163 154.114C32.2298 153.974 29.6108 152.742 27.7267 150.684C25.8426 148.626 24.8453 145.909 24.951 143.121C25.0566 140.333 26.2567 137.699 28.2911 135.789C30.3255 133.88 33.0302 132.849 35.8193 132.92C38.6085 132.992 41.2571 134.159 43.1914 136.17C45.1257 138.18 46.1898 140.872 46.153 143.662C46.1162 146.452 44.9816 149.115 42.995 151.074C41.0084 153.033 38.3298 154.13 35.5398 154.127ZM35.522 133.469C32.8939 133.472 30.3729 134.511 28.5055 136.36C26.638 138.21 25.5747 140.72 25.5459 143.348C25.5172 145.976 26.5254 148.51 28.3519 150.399C30.1784 152.289 32.6762 153.383 35.3036 153.443C37.931 153.504 40.4763 152.526 42.388 150.723C44.2996 148.919 45.4234 146.435 45.5158 143.809C45.6081 141.182 44.6616 138.625 42.8813 136.692C41.1011 134.758 38.6305 133.605 36.0053 133.48C35.8427 133.472 35.6824 133.469 35.522 133.469Z" fill="#1D1D1B"/>
<path d="M27.1178 141.845C27.0912 141.848 27.0643 141.848 27.0376 141.845C26.9948 141.834 26.9545 141.815 26.9191 141.789C26.8837 141.763 26.8539 141.73 26.8313 141.692C26.8087 141.654 26.7938 141.612 26.7876 141.568C26.7813 141.525 26.7837 141.48 26.7947 141.437C27.3821 139.111 28.8682 137.112 30.9273 135.879C32.9864 134.646 35.4503 134.28 37.7787 134.862C37.8647 134.883 37.9385 134.938 37.9841 135.014C38.0296 135.09 38.0432 135.181 38.0216 135.267C38 135.353 37.9451 135.427 37.8691 135.473C37.7931 135.518 37.7021 135.532 37.6161 135.51C35.4593 134.971 33.1766 135.309 31.2692 136.451C29.3618 137.594 27.9857 139.446 27.443 141.602C27.423 141.673 27.3803 141.735 27.3215 141.779C27.2627 141.823 27.1911 141.846 27.1178 141.845Z" fill="#1D1D1B"/>
<path d="M35.5917 152.688C34.8407 152.689 34.0926 152.597 33.3642 152.414C33.2785 152.392 33.205 152.337 33.1596 152.261C33.1141 152.186 33.1004 152.095 33.1214 152.009C33.1318 151.966 33.1506 151.926 33.1767 151.891C33.2027 151.855 33.2355 151.825 33.2732 151.803C33.311 151.78 33.3529 151.765 33.3964 151.759C33.4399 151.753 33.4842 151.755 33.5268 151.766C35.684 152.307 37.9675 151.969 39.8756 150.826C41.7836 149.684 43.1601 147.831 43.7022 145.674C43.7238 145.588 43.7785 145.514 43.8546 145.468C43.9306 145.423 44.0216 145.409 44.1076 145.431C44.1935 145.452 44.2674 145.507 44.3129 145.583C44.3585 145.659 44.3719 145.75 44.3503 145.836C43.8597 147.791 42.7314 149.526 41.1438 150.767C39.5562 152.008 37.6 152.684 35.585 152.688H35.5917Z" fill="#1D1D1B"/>
<path d="M37.3804 148.136L35.4402 146.61C35.3781 146.561 35.3052 146.528 35.2277 146.514C35.1501 146.499 35.0701 146.504 34.9947 146.528L32.6379 147.26C32.552 147.288 32.4601 147.29 32.3728 147.268C32.2854 147.246 32.2061 147.199 32.1439 147.134C32.0817 147.069 32.039 146.987 32.0208 146.899C32.0026 146.811 32.0096 146.719 32.041 146.634L32.8942 144.316C32.9206 144.242 32.9289 144.163 32.9184 144.085C32.908 144.008 32.879 143.934 32.834 143.87L31.4083 141.854C31.3561 141.781 31.3257 141.694 31.3202 141.604C31.3148 141.515 31.3346 141.425 31.3775 141.346C31.4205 141.267 31.4847 141.201 31.563 141.157C31.6413 141.112 31.7305 141.091 31.8204 141.095L34.2886 141.188C34.3668 141.191 34.4445 141.175 34.5151 141.141C34.5857 141.107 34.6471 141.057 34.6939 140.994L36.1686 139.014C36.2225 138.942 36.2957 138.886 36.3798 138.853C36.4639 138.82 36.5556 138.811 36.6444 138.827C36.7333 138.844 36.8157 138.885 36.8824 138.946C36.9491 139.007 36.9974 139.085 37.0218 139.172L37.69 141.547C37.711 141.622 37.7501 141.692 37.8041 141.749C37.8581 141.806 37.9253 141.849 37.9997 141.874L40.3386 142.665C40.4241 142.694 40.4998 142.746 40.5571 142.816C40.6144 142.886 40.6511 142.97 40.6629 143.06C40.6747 143.149 40.6612 143.24 40.624 143.322C40.5867 143.404 40.5272 143.475 40.4521 143.525L38.4006 144.899C38.3334 144.941 38.2778 144.999 38.2388 145.068C38.1999 145.137 38.179 145.214 38.1778 145.293L38.1466 147.762C38.1434 147.849 38.1166 147.934 38.0688 148.008C38.0211 148.081 37.9544 148.14 37.8757 148.178C37.797 148.217 37.7094 148.233 37.6221 148.226C37.5349 148.218 37.4513 148.187 37.3804 148.136Z" fill="white"/>
<path d="M37.6766 148.574C37.4939 148.573 37.3168 148.511 37.1733 148.398L35.2331 146.872C35.2143 146.857 35.192 146.847 35.1684 146.842C35.1447 146.837 35.1203 146.839 35.0971 146.845L32.7382 147.587C32.5926 147.632 32.4374 147.636 32.29 147.597C32.1425 147.559 32.0088 147.48 31.9039 147.369C31.7989 147.259 31.727 147.121 31.6961 146.972C31.6652 146.823 31.6767 146.668 31.7292 146.525L32.5822 144.206C32.5898 144.183 32.5922 144.159 32.5891 144.136C32.586 144.112 32.5776 144.09 32.5645 144.07L31.1366 142.054C31.048 141.93 30.9961 141.783 30.9868 141.63C30.9776 141.478 31.0114 141.326 31.0843 141.192C31.1572 141.058 31.2663 140.947 31.3992 140.871C31.5321 140.796 31.6835 140.76 31.8361 140.766L34.3019 140.86C34.3261 140.861 34.3502 140.856 34.372 140.846C34.3938 140.835 34.4126 140.819 34.4267 140.8L35.9035 138.822C35.9942 138.699 36.1177 138.604 36.2597 138.548C36.4018 138.492 36.5568 138.477 36.707 138.504C36.8572 138.532 36.9966 138.601 37.1094 138.704C37.2222 138.807 37.3037 138.94 37.3448 139.087L38.013 141.461C38.0194 141.485 38.0313 141.506 38.0481 141.524C38.0648 141.541 38.0857 141.554 38.1088 141.562L40.4477 142.355C40.5924 142.403 40.7206 142.491 40.8177 142.609C40.9148 142.727 40.9769 142.87 40.9968 143.021C41.0168 143.172 40.9938 143.326 40.9306 143.465C40.8674 143.604 40.7665 143.723 40.6393 143.807L38.5877 145.181C38.5677 145.195 38.5514 145.213 38.5401 145.235C38.5289 145.256 38.523 145.28 38.5232 145.304L38.4919 147.772C38.4905 147.925 38.4461 148.074 38.3637 148.202C38.2814 148.331 38.1645 148.433 38.0264 148.498C37.917 148.549 37.7974 148.575 37.6766 148.574ZM35.1417 146.17C35.3246 146.17 35.5021 146.232 35.6451 146.346L37.5876 147.872C37.6089 147.89 37.6351 147.901 37.6628 147.905C37.6905 147.908 37.7186 147.903 37.7435 147.89C37.7691 147.878 37.7906 147.86 37.8056 147.836C37.8207 147.812 37.8285 147.784 37.8281 147.756L37.8594 145.288C37.8606 145.156 37.894 145.026 37.9569 144.909C38.0198 144.793 38.1101 144.694 38.2201 144.62L40.2717 143.246C40.2948 143.23 40.3132 143.209 40.3248 143.184C40.3363 143.158 40.3405 143.13 40.3371 143.103C40.3336 143.075 40.3225 143.049 40.3051 143.028C40.2876 143.006 40.2645 142.99 40.2383 142.981L37.8994 142.19C37.7736 142.147 37.66 142.075 37.5684 141.979C37.4768 141.882 37.41 141.765 37.3737 141.637L36.7055 139.263C36.6985 139.236 36.6839 139.211 36.6634 139.192C36.6428 139.173 36.6172 139.161 36.5896 139.156C36.5625 139.15 36.5343 139.153 36.5085 139.163C36.4827 139.173 36.4606 139.191 36.4449 139.214L34.9679 141.194C34.8882 141.3 34.7843 141.385 34.6649 141.442C34.5455 141.499 34.4142 141.526 34.2819 141.522L31.8138 141.428C31.7862 141.426 31.7584 141.431 31.7342 141.445C31.7099 141.458 31.6904 141.479 31.678 141.504C31.6629 141.527 31.6548 141.555 31.6548 141.583C31.6548 141.611 31.6629 141.638 31.678 141.662L33.1036 143.678C33.1805 143.786 33.2298 143.911 33.2472 144.042C33.2647 144.173 33.2498 144.307 33.2037 144.431L32.3528 146.747C32.3435 146.773 32.3415 146.801 32.3471 146.828C32.3527 146.855 32.3657 146.88 32.3846 146.9C32.4035 146.92 32.4277 146.935 32.4543 146.942C32.481 146.949 32.509 146.949 32.5355 146.941L34.8945 146.208C34.9745 146.183 35.0579 146.17 35.1417 146.17Z" fill="black"/>
<path d="M43.9731 144.656H43.9197C43.7728 144.642 43.6376 144.569 43.5437 144.456C43.4498 144.342 43.4048 144.195 43.4185 144.048C44.0333 137.695 38.5357 135.786 38.48 135.766C38.3451 135.715 38.2353 135.614 38.1734 135.484C38.1114 135.354 38.1021 135.205 38.1477 135.069C38.1932 134.932 38.2899 134.818 38.4175 134.752C38.5451 134.685 38.6937 134.67 38.8319 134.71C38.8965 134.733 45.2273 136.938 44.5278 144.155C44.5135 144.292 44.4489 144.419 44.3465 144.512C44.2441 144.604 44.1111 144.656 43.9731 144.656Z" fill="white"/>
<path d="M158.491 120.561C165.665 120.561 171.48 114.746 171.48 107.572C171.48 100.399 165.665 94.5835 158.491 94.5835C151.318 94.5835 145.502 100.399 145.502 107.572C145.502 114.746 151.318 120.561 158.491 120.561Z" fill="#FFD27B"/>
<path d="M158.478 120.888C156.358 120.885 154.27 120.376 152.386 119.403C150.503 118.43 148.879 117.022 147.649 115.296C146.419 113.569 145.619 111.574 145.315 109.476C145.011 107.378 145.213 105.238 145.902 103.234C146.592 101.229 147.75 99.4185 149.28 97.9516C150.81 96.4846 152.668 95.4041 154.7 94.7996C156.732 94.1952 158.878 94.0843 160.962 94.4763C163.045 94.8683 165.004 95.7517 166.677 97.0533C168.871 98.758 170.477 101.106 171.269 103.769C172.062 106.431 172.003 109.275 171.099 111.902C170.195 114.529 168.493 116.808 166.229 118.419C163.966 120.03 161.256 120.894 158.478 120.888ZM158.505 94.9215C155.51 94.9176 152.611 95.9761 150.324 97.9085C148.037 99.841 146.509 102.522 146.013 105.475C145.517 108.428 146.084 111.461 147.614 114.035C149.144 116.609 151.537 118.557 154.369 119.532C157.2 120.507 160.285 120.447 163.075 119.361C165.866 118.275 168.181 116.234 169.608 113.602C171.036 110.97 171.483 107.917 170.871 104.986C170.259 102.054 168.627 99.4354 166.265 97.5945C164.05 95.8617 161.317 94.9207 158.505 94.9215Z" fill="#1D1D1B"/>
<path d="M150.394 115.135C150.346 115.136 150.298 115.126 150.255 115.106C150.211 115.086 150.173 115.056 150.142 115.019C149.173 113.896 148.435 112.592 147.971 111.183C147.506 109.775 147.323 108.288 147.433 106.809C147.543 105.329 147.943 103.886 148.611 102.561C149.279 101.236 150.201 100.056 151.325 99.088C151.358 99.0588 151.397 99.0363 151.438 99.022C151.48 99.0077 151.525 99.0018 151.569 99.0046C151.613 99.0074 151.656 99.0188 151.696 99.0383C151.736 99.0578 151.771 99.0848 151.8 99.118C151.83 99.1512 151.852 99.1899 151.866 99.2318C151.881 99.2737 151.887 99.3179 151.884 99.3621C151.881 99.4063 151.87 99.4494 151.85 99.4891C151.831 99.5289 151.804 99.5644 151.77 99.5937C150.713 100.505 149.845 101.615 149.216 102.862C148.588 104.108 148.211 105.466 148.108 106.859C148.004 108.251 148.176 109.65 148.614 110.975C149.051 112.301 149.745 113.528 150.657 114.585C150.685 114.618 150.707 114.657 150.721 114.698C150.735 114.74 150.74 114.784 150.737 114.827C150.733 114.871 150.721 114.914 150.701 114.953C150.682 114.992 150.654 115.027 150.621 115.055C150.558 115.11 150.477 115.139 150.394 115.135Z" fill="#1D1D1B"/>
<path d="M165.855 116.284C165.807 116.285 165.759 116.275 165.716 116.255C165.672 116.235 165.634 116.205 165.603 116.168C165.574 116.135 165.552 116.097 165.538 116.055C165.524 116.014 165.519 115.97 165.522 115.926C165.525 115.883 165.537 115.84 165.556 115.801C165.576 115.762 165.603 115.727 165.636 115.698C167.769 113.856 169.085 111.244 169.294 108.433C169.502 105.623 168.588 102.844 166.75 100.707C166.691 100.64 166.661 100.552 166.667 100.462C166.673 100.373 166.714 100.289 166.781 100.23C166.849 100.171 166.937 100.141 167.026 100.147C167.116 100.153 167.199 100.194 167.258 100.262C169.21 102.533 170.182 105.486 169.96 108.473C169.738 111.46 168.34 114.237 166.073 116.195C166.014 116.25 165.936 116.282 165.855 116.284Z" fill="#1D1D1B"/>
<path d="M164.635 109.051L161.661 109.942C161.567 109.97 161.481 110.021 161.41 110.09C161.34 110.158 161.287 110.243 161.256 110.336L160.302 113.292C160.268 113.4 160.204 113.496 160.117 113.569C160.031 113.643 159.926 113.69 159.814 113.706C159.702 113.723 159.587 113.708 159.483 113.662C159.38 113.617 159.291 113.544 159.226 113.451L157.46 110.898C157.404 110.817 157.33 110.751 157.243 110.705C157.156 110.659 157.059 110.635 156.961 110.635H153.856C153.743 110.635 153.632 110.603 153.536 110.543C153.44 110.483 153.362 110.398 153.312 110.297C153.262 110.195 153.241 110.082 153.251 109.969C153.262 109.857 153.304 109.749 153.372 109.659L155.255 107.191C155.314 107.113 155.355 107.022 155.371 106.925C155.388 106.828 155.381 106.728 155.35 106.634L154.384 103.683C154.349 103.575 154.345 103.46 154.372 103.35C154.399 103.241 154.456 103.141 154.537 103.061C154.617 102.982 154.719 102.927 154.829 102.902C154.939 102.878 155.054 102.884 155.161 102.921L158.093 103.95C158.185 103.983 158.284 103.992 158.381 103.978C158.478 103.964 158.57 103.926 158.649 103.868L161.158 102.037C161.249 101.969 161.358 101.929 161.471 101.921C161.584 101.912 161.697 101.936 161.798 101.988C161.898 102.041 161.982 102.121 162.039 102.219C162.097 102.317 162.125 102.429 162.122 102.542L162.051 105.648C162.049 105.746 162.071 105.843 162.114 105.931C162.157 106.019 162.221 106.095 162.3 106.153L164.817 107.973C164.911 108.039 164.984 108.13 165.028 108.235C165.072 108.341 165.085 108.457 165.066 108.57C165.047 108.682 164.996 108.788 164.92 108.873C164.844 108.958 164.745 109.02 164.635 109.051Z" fill="white"/>
<path d="M159.723 114.046C159.571 114.046 159.421 114.009 159.287 113.938C159.152 113.867 159.037 113.764 158.952 113.638L157.186 111.085C157.161 111.049 157.127 111.019 157.089 110.999C157.05 110.978 157.007 110.967 156.963 110.967H153.858C153.682 110.967 153.51 110.918 153.362 110.825C153.213 110.732 153.092 110.6 153.015 110.443C152.937 110.286 152.905 110.11 152.921 109.935C152.938 109.761 153.003 109.594 153.109 109.455L154.994 106.987C155.02 106.952 155.038 106.911 155.046 106.867C155.053 106.824 155.05 106.779 155.036 106.737L154.071 103.786C154.017 103.619 154.009 103.44 154.051 103.269C154.093 103.099 154.181 102.943 154.307 102.82C154.432 102.697 154.589 102.612 154.761 102.574C154.932 102.536 155.111 102.547 155.276 102.605L158.206 103.634C158.248 103.649 158.292 103.653 158.336 103.646C158.38 103.639 158.422 103.622 158.457 103.596L160.966 101.765C161.107 101.662 161.275 101.6 161.45 101.587C161.625 101.573 161.801 101.61 161.956 101.691C162.112 101.773 162.242 101.896 162.331 102.047C162.42 102.198 162.465 102.372 162.46 102.547L162.389 105.652C162.389 105.696 162.399 105.738 162.418 105.777C162.437 105.816 162.466 105.849 162.5 105.875L165.017 107.695C165.16 107.798 165.271 107.939 165.338 108.101C165.404 108.264 165.424 108.442 165.395 108.615C165.365 108.788 165.288 108.95 165.171 109.081C165.054 109.213 164.903 109.309 164.735 109.359L161.761 110.25C161.718 110.262 161.68 110.285 161.648 110.315C161.616 110.346 161.592 110.384 161.578 110.426L160.625 113.382C160.572 113.549 160.472 113.698 160.338 113.812C160.205 113.925 160.041 113.999 159.868 114.023C159.82 114.034 159.771 114.042 159.723 114.046ZM156.961 110.299C157.113 110.299 157.263 110.336 157.398 110.406C157.533 110.477 157.649 110.579 157.736 110.704L159.5 113.259C159.529 113.301 159.569 113.334 159.616 113.355C159.663 113.375 159.714 113.382 159.765 113.374C159.815 113.367 159.863 113.345 159.902 113.313C159.941 113.28 159.97 113.237 159.986 113.188L160.939 110.232C160.985 110.087 161.067 109.955 161.176 109.848C161.285 109.741 161.418 109.663 161.565 109.62L164.539 108.729C164.589 108.714 164.633 108.685 164.667 108.646C164.701 108.606 164.723 108.557 164.73 108.506C164.74 108.455 164.735 108.403 164.716 108.356C164.696 108.308 164.663 108.268 164.621 108.239L162.104 106.419C161.98 106.329 161.881 106.211 161.813 106.075C161.746 105.938 161.712 105.787 161.716 105.635L161.788 102.529C161.789 102.479 161.777 102.428 161.751 102.385C161.725 102.341 161.688 102.305 161.643 102.282C161.598 102.257 161.547 102.246 161.496 102.25C161.445 102.254 161.396 102.273 161.355 102.304L158.847 104.133C158.724 104.223 158.581 104.282 158.43 104.305C158.279 104.327 158.125 104.313 157.981 104.262L155.052 103.233C155.003 103.216 154.951 103.212 154.901 103.223C154.851 103.234 154.805 103.259 154.769 103.296C154.732 103.331 154.706 103.376 154.694 103.426C154.682 103.476 154.685 103.528 154.702 103.576L155.666 106.526C155.714 106.671 155.725 106.825 155.7 106.976C155.675 107.126 155.614 107.268 155.522 107.39L153.637 109.858C153.605 109.898 153.585 109.946 153.58 109.998C153.576 110.049 153.586 110.1 153.61 110.145C153.632 110.191 153.666 110.23 153.709 110.257C153.753 110.283 153.802 110.297 153.853 110.297H156.956L156.961 110.299Z" fill="black"/>
<path d="M165.165 99.6805C165.09 99.6806 165.015 99.6652 164.946 99.6353C164.876 99.6054 164.814 99.5616 164.762 99.5067C160.661 95.2008 153.286 98.4887 153.212 98.5221C153.146 98.5525 153.074 98.5695 153.001 98.5721C152.927 98.5748 152.855 98.563 152.786 98.5374C152.717 98.5119 152.655 98.4732 152.601 98.4233C152.547 98.3735 152.504 98.3136 152.474 98.247C152.443 98.1805 152.426 98.1086 152.424 98.0355C152.421 97.9624 152.433 97.8893 152.458 97.8208C152.484 97.7522 152.523 97.6893 152.573 97.6358C152.622 97.5822 152.682 97.539 152.749 97.5086C153.081 97.3571 160.917 93.8555 165.568 98.7382C165.644 98.8171 165.695 98.9164 165.714 99.0238C165.734 99.1313 165.721 99.2422 165.678 99.3426C165.635 99.4431 165.564 99.5286 165.473 99.5887C165.381 99.6487 165.274 99.6807 165.165 99.6805Z" fill="white"/>
<path d="M176.242 104.552C176.16 104.552 176.081 104.522 176.02 104.467C175.958 104.413 175.919 104.337 175.91 104.256C175.282 98.5066 172.475 94.4257 167.566 92.1246C165.279 91.0708 162.807 90.476 160.291 90.3738C160.202 90.3738 160.117 90.3386 160.054 90.2759C159.992 90.2133 159.957 90.1283 159.957 90.0397C159.957 89.9511 159.992 89.8661 160.054 89.8035C160.117 89.7408 160.202 89.7056 160.291 89.7056C162.898 89.7986 165.46 90.4121 167.826 91.5099C171.366 93.1627 175.756 96.7045 176.576 104.182C176.586 104.271 176.56 104.359 176.504 104.428C176.449 104.498 176.368 104.542 176.28 104.552H176.242Z" fill="#1D1D1B"/>
<path d="M128.802 56.3076C134.507 56.3076 139.131 51.6831 139.131 45.9785C139.131 40.2739 134.507 35.6494 128.802 35.6494C123.098 35.6494 118.473 40.2739 118.473 45.9785C118.473 51.6831 123.098 56.3076 128.802 56.3076Z" fill="#FFD27B"/>
<path d="M128.792 56.6443C126.519 56.6417 124.306 55.9131 122.476 54.5648C120.647 53.2165 119.296 51.319 118.62 49.1489C117.945 46.9788 117.98 44.6496 118.721 42.501C119.462 40.3524 120.871 38.4967 122.74 37.2046C124.61 35.9125 126.844 35.2516 129.116 35.318C131.388 35.3845 133.579 36.1749 135.37 37.5742C137.161 38.9734 138.458 40.9083 139.072 43.0966C139.686 45.2848 139.586 47.612 138.784 49.7389C138.016 51.7678 136.648 53.515 134.864 54.7484C133.079 55.9818 130.961 56.643 128.792 56.6443ZM128.814 35.9839C126.319 35.9818 123.913 36.9133 122.07 38.5953C120.226 40.2773 119.079 42.588 118.854 45.0731C118.628 47.5581 119.34 50.0377 120.85 52.0241C122.36 54.0106 124.559 55.3601 127.014 55.8074C129.469 56.2548 132.002 55.7675 134.116 54.4415C136.23 53.1154 137.771 51.0464 138.436 48.6415C139.102 46.2366 138.843 43.6697 137.712 41.4457C136.58 39.2217 134.658 37.5014 132.322 36.6232C131.2 36.2034 130.012 35.9884 128.814 35.9884V35.9839Z" fill="#1D1D1B"/>
<path d="M121.394 41.8741C121.334 41.8746 121.275 41.8591 121.224 41.829C121.172 41.7989 121.13 41.7555 121.101 41.7033C121.072 41.651 121.057 41.592 121.059 41.5323C121.061 41.4726 121.079 41.4144 121.111 41.364C121.739 40.3546 122.561 39.4789 123.528 38.787C124.495 38.0951 125.589 37.6006 126.748 37.3317C127.906 37.0628 129.106 37.0247 130.28 37.2197C131.453 37.4147 132.576 37.839 133.585 38.4682C133.624 38.4904 133.659 38.5203 133.686 38.5562C133.714 38.5921 133.734 38.6331 133.745 38.6769C133.756 38.7207 133.758 38.7664 133.751 38.811C133.745 38.8557 133.728 38.8986 133.704 38.9369C133.681 38.9752 133.649 39.0082 133.612 39.034C133.575 39.0598 133.533 39.0778 133.488 39.0869C133.444 39.096 133.398 39.096 133.354 39.0869C133.31 39.0778 133.268 39.0598 133.231 39.034C131.344 37.8596 129.068 37.4815 126.902 37.9826C124.737 38.4837 122.858 39.8231 121.679 41.7071C121.65 41.7574 121.608 41.7993 121.558 41.8287C121.508 41.858 121.452 41.8736 121.394 41.8741Z" fill="#1D1D1B"/>
<path d="M128.778 55.2122C127.089 55.2107 125.435 54.7337 124.005 53.8356C123.965 53.8135 123.931 53.7835 123.903 53.7476C123.876 53.7118 123.855 53.6707 123.844 53.6269C123.833 53.5831 123.831 53.5375 123.838 53.4928C123.845 53.4481 123.861 53.4053 123.885 53.3669C123.909 53.3286 123.94 53.2956 123.978 53.2698C124.015 53.244 124.057 53.226 124.101 53.217C124.145 53.2079 124.191 53.2079 124.235 53.217C124.28 53.226 124.322 53.244 124.359 53.2698C126.245 54.4472 128.522 54.827 130.688 54.3257C132.855 53.8244 134.733 52.4831 135.911 50.5968C135.933 50.5574 135.963 50.5228 135.999 50.4953C136.034 50.4678 136.076 50.4478 136.119 50.4367C136.163 50.4255 136.209 50.4233 136.253 50.4303C136.298 50.4372 136.341 50.4531 136.379 50.4771C136.418 50.5011 136.451 50.5327 136.476 50.5698C136.502 50.6069 136.52 50.649 136.529 50.6932C136.538 50.7375 136.538 50.7832 136.529 50.8275C136.52 50.8718 136.502 50.9138 136.476 50.9509C135.85 51.9618 135.029 52.8383 134.061 53.5297C133.093 54.221 131.998 54.7134 130.839 54.9783C130.163 55.1343 129.472 55.2127 128.778 55.2122Z" fill="#1D1D1B"/>
<path d="M129.132 50.993L127.753 48.9459C127.71 48.8795 127.652 48.8246 127.583 48.7858C127.515 48.747 127.438 48.7255 127.359 48.7232L124.888 48.6987C124.798 48.6976 124.71 48.6713 124.634 48.6228C124.558 48.5742 124.497 48.5054 124.458 48.4241C124.419 48.3427 124.404 48.2521 124.414 48.1625C124.424 48.0728 124.458 47.9877 124.514 47.9168L126.035 45.9744C126.084 45.9122 126.116 45.8392 126.13 45.7616C126.144 45.684 126.139 45.6041 126.116 45.5289L125.376 43.1722C125.35 43.0863 125.348 42.9948 125.37 42.9079C125.393 42.8209 125.439 42.7421 125.504 42.6801C125.569 42.6181 125.651 42.5754 125.738 42.5569C125.826 42.5383 125.918 42.5447 126.002 42.5751L128.323 43.4217C128.397 43.4481 128.476 43.4564 128.553 43.4459C128.631 43.4355 128.705 43.4065 128.769 43.3615L130.773 41.9315C130.847 41.8788 130.933 41.8477 131.023 41.8418C131.113 41.836 131.203 41.8555 131.282 41.8982C131.362 41.9409 131.428 42.0052 131.473 42.0835C131.517 42.1619 131.539 42.2512 131.535 42.3413L131.448 44.8094C131.446 44.8876 131.462 44.9654 131.495 45.036C131.529 45.1066 131.579 45.168 131.642 45.2148L133.625 46.685C133.697 46.7386 133.753 46.8114 133.787 46.8952C133.82 46.9791 133.829 47.0706 133.813 47.1593C133.797 47.2481 133.757 47.3306 133.696 47.3975C133.636 47.4645 133.558 47.5132 133.471 47.5382L131.097 48.2064C131.021 48.2279 130.952 48.2676 130.895 48.3219C130.838 48.3763 130.796 48.4437 130.771 48.5182L129.983 50.8572C129.956 50.9426 129.906 51.0189 129.838 51.0775C129.771 51.1361 129.688 51.1746 129.599 51.1887C129.511 51.2028 129.42 51.192 129.338 51.1575C129.255 51.1229 129.184 51.0659 129.132 50.993Z" fill="white"/>
<path d="M129.53 51.5415C129.398 51.5407 129.268 51.5074 129.151 51.4445C129.035 51.3815 128.935 51.291 128.862 51.1807L127.483 49.1313C127.47 49.1116 127.451 49.0955 127.43 49.0842C127.409 49.073 127.385 49.067 127.361 49.0667L124.891 49.0423C124.738 49.0401 124.59 48.9955 124.461 48.9135C124.333 48.8314 124.23 48.7152 124.165 48.5779C124.099 48.4406 124.073 48.2877 124.089 48.1363C124.106 47.985 124.164 47.8412 124.258 47.7213L125.779 45.7767C125.794 45.7577 125.804 45.7354 125.808 45.7117C125.812 45.6881 125.811 45.6638 125.804 45.6408L125.064 43.2841C125.019 43.1386 125.015 42.9833 125.053 42.8358C125.092 42.6883 125.17 42.5544 125.28 42.4493C125.391 42.3441 125.528 42.2719 125.677 42.2407C125.827 42.2095 125.981 42.2206 126.125 42.2727L128.443 43.1192C128.466 43.128 128.491 43.1311 128.515 43.128C128.539 43.1249 128.562 43.1158 128.582 43.1014L130.586 41.6691C130.711 41.581 130.857 41.5294 131.009 41.5201C131.161 41.5108 131.313 41.5442 131.447 41.6164C131.581 41.6887 131.692 41.7969 131.768 41.929C131.844 42.0612 131.881 42.2119 131.876 42.3641L131.789 44.8322C131.788 44.8561 131.793 44.8799 131.803 44.9016C131.813 44.9233 131.828 44.9423 131.847 44.9569L133.832 46.4294C133.954 46.5204 134.048 46.6437 134.104 46.7855C134.16 46.9272 134.175 47.0817 134.148 47.2315C134.12 47.3814 134.052 47.5206 133.949 47.6335C133.847 47.7464 133.715 47.8285 133.569 47.8705L131.194 48.55C131.172 48.5566 131.151 48.5685 131.133 48.5848C131.116 48.601 131.102 48.6211 131.094 48.6435L130.308 50.9846C130.26 51.1299 130.171 51.2587 130.053 51.356C129.935 51.4534 129.792 51.5154 129.64 51.5349L129.53 51.5415ZM129.41 50.8086C129.426 50.8311 129.447 50.8488 129.473 50.8597C129.498 50.8707 129.525 50.8746 129.553 50.8709C129.58 50.8673 129.605 50.8561 129.626 50.8389C129.648 50.8216 129.664 50.7989 129.673 50.7731L130.462 48.4319C130.503 48.3062 130.575 48.1925 130.67 48.1009C130.766 48.0092 130.882 47.9424 131.01 47.9062L133.384 47.2379C133.411 47.2303 133.435 47.2155 133.454 47.195C133.472 47.1744 133.485 47.149 133.49 47.1217C133.495 47.0943 133.493 47.0662 133.482 47.0403C133.472 47.0144 133.455 46.9917 133.433 46.975L131.451 45.5027C131.344 45.4241 131.259 45.3208 131.201 45.2016C131.144 45.0824 131.116 44.9511 131.121 44.8189L131.208 42.3507C131.209 42.3232 131.202 42.296 131.188 42.2721C131.174 42.2482 131.154 42.2286 131.13 42.2154C131.106 42.2023 131.078 42.1961 131.051 42.1976C131.023 42.199 130.997 42.2082 130.974 42.2238L128.969 43.6539C128.861 43.7306 128.736 43.78 128.604 43.7979C128.473 43.8157 128.339 43.8015 128.214 43.7563L125.895 42.9098C125.869 42.8994 125.841 42.8969 125.814 42.9024C125.786 42.9079 125.761 42.9214 125.741 42.941C125.721 42.9599 125.707 42.9841 125.7 43.0109C125.692 43.0377 125.693 43.0661 125.701 43.0925L126.441 45.4493C126.481 45.5757 126.489 45.7099 126.466 45.8403C126.442 45.9707 126.387 46.0934 126.305 46.1977L124.784 48.1423C124.766 48.1637 124.755 48.1899 124.751 48.2176C124.748 48.2453 124.753 48.2733 124.766 48.2982C124.778 48.3234 124.797 48.3448 124.821 48.3597C124.844 48.3747 124.872 48.3827 124.899 48.3829L127.367 48.4074C127.5 48.4092 127.63 48.4429 127.746 48.5057C127.862 48.5685 127.962 48.6587 128.036 48.7683L129.41 50.8086Z" fill="black"/>
<path d="M136.806 49.83C136.717 49.8294 136.63 49.8075 136.551 49.7662C136.472 49.7249 136.404 49.6654 136.353 49.5926C136.302 49.5199 136.269 49.436 136.257 49.3479C136.244 49.2598 136.253 49.1699 136.283 49.086C138.321 43.3768 134.436 40.5412 134.278 40.4232C134.167 40.3343 134.094 40.2064 134.074 40.0655C134.053 39.9247 134.088 39.7814 134.17 39.665C134.251 39.5485 134.374 39.4677 134.514 39.4388C134.653 39.41 134.798 39.4354 134.92 39.5099C134.966 39.5433 139.671 42.9313 137.339 49.4602C137.3 49.5699 137.228 49.6646 137.132 49.731C137.037 49.7973 136.923 49.832 136.806 49.83Z" fill="white"/>
<path d="M140.134 37.8688C140.073 37.8689 140.014 37.8524 139.961 37.821C139.909 37.7896 139.866 37.7445 139.838 37.6906C135.59 29.6202 125.272 32.7255 125.167 32.7566C125.125 32.7726 125.08 32.7795 125.034 32.7773C124.989 32.7751 124.944 32.7637 124.903 32.7437C124.863 32.7237 124.826 32.6956 124.797 32.661C124.767 32.6265 124.745 32.5863 124.731 32.5429C124.718 32.4995 124.713 32.4538 124.718 32.4086C124.723 32.3634 124.737 32.3197 124.759 32.28C124.781 32.2404 124.811 32.2057 124.848 32.1781C124.884 32.1505 124.925 32.1305 124.969 32.1195C125.078 32.0861 135.922 28.8117 140.431 37.3788C140.469 37.4568 140.477 37.5467 140.45 37.6298C140.424 37.7129 140.367 37.7827 140.29 37.8243C140.242 37.8511 140.189 37.8663 140.134 37.8688Z" fill="#1D1D1B"/>
</svg>
